<?xml version="1.0" encoding="UTF-8"?>
<svg width="62px" height="62px" viewBox="0 0 62 62" version="1.1" xmlns="http://www.w3.org/2000/svg" xmlns:xlink="http://www.w3.org/1999/xlink">
    <!-- Generator: Sketch 52 (66869) - http://www.bohemiancoding.com/sketch -->
    <title>Group 28</title>
    <desc>Created with Sketch.</desc>
    <defs>
        <linearGradient x1="-1.11022302e-14%" y1="50%" x2="100%" y2="50%" id="linearGradient-1">
            <stop stop-color="#F5A803" offset="0%"></stop>
            <stop stop-color="#D14405" offset="100%"></stop>
        </linearGradient>
        <circle id="path-2" cx="25" cy="25" r="25"></circle>
        <filter x="-20.0%" y="-16.0%" width="140.0%" height="140.0%" filterUnits="objectBoundingBox" id="filter-3">
            <feOffset dx="0" dy="2" in="SourceAlpha" result="shadowOffsetOuter1"></feOffset>
            <feGaussianBlur stdDeviation="3" in="shadowOffsetOuter1" result="shadowBlurOuter1"></feGaussianBlur>
            <feColorMatrix values="0 0 0 0 0   0 0 0 0 0   0 0 0 0 0  0 0 0 0.266134511 0" type="matrix" in="shadowBlurOuter1"></feColorMatrix>
        </filter>
    </defs>
    <g id="Page-1" stroke="none" stroke-width="1" fill="none" fill-rule="evenodd">
        <g id="IT-club" transform="translate(-778.000000, -1756.000000)" fill-rule="nonzero">
            <g id="Group-28" transform="translate(784.000000, 1760.000000)">
                <g id="Oval">
                    <use fill="black" fill-opacity="1" filter="url(#filter-3)" xlink:href="#path-2"></use>
                    <use fill="url(#linearGradient-1)" xlink:href="#path-2"></use>
                </g>
                <g id="008-magnifying-glass" transform="translate(15.000000, 14.000000)" fill="#FFFFFF">
                    <path d="M19.755102,18.5795918 L14.9469388,13.7714286 C16.1387755,12.3183673 16.8571429,10.4571429 16.8571429,8.42857143 C16.8571429,3.7755102 13.0816327,0 8.42857143,0 C3.77142857,0 0,3.7755102 0,8.42857143 C0,13.0816327 3.77142857,16.8571429 8.42857143,16.8571429 C10.4571429,16.8571429 12.3142857,16.1428571 13.7673469,14.9510204 L18.5755102,19.755102 C18.9020408,20.0816327 19.4285714,20.0816327 19.755102,19.755102 C20.0816327,19.4326531 20.0816327,18.9020408 19.755102,18.5795918 Z M8.42857143,15.1795918 C4.70204082,15.1795918 1.67346939,12.1510204 1.67346939,8.42857143 C1.67346939,4.70612245 4.70204082,1.67346939 8.42857143,1.67346939 C12.1510204,1.67346939 15.1836735,4.70612245 15.1836735,8.42857143 C15.1836735,12.1510204 12.1510204,15.1795918 8.42857143,15.1795918 Z" id="Shape"></path>
                </g>
            </g>
        </g>
    </g>
</svg>