<?xml version="1.0" encoding="UTF-8"?>
<svg width="62px" height="62px" viewBox="0 0 62 62" version="1.1" xmlns="http://www.w3.org/2000/svg" xmlns:xlink="http://www.w3.org/1999/xlink">
    <!-- Generator: Sketch 52 (66869) - http://www.bohemiancoding.com/sketch -->
    <title>Group 35</title>
    <desc>Created with Sketch.</desc>
    <defs>
        <circle id="path-1" cx="25" cy="25" r="25"></circle>
        <filter x="-21.0%" y="-15.0%" width="142.0%" height="142.0%" filterUnits="objectBoundingBox" id="filter-2">
            <feOffset dx="0" dy="3" in="SourceAlpha" result="shadowOffsetOuter1"></feOffset>
            <feGaussianBlur stdDeviation="3" in="shadowOffsetOuter1" result="shadowBlurOuter1"></feGaussianBlur>
            <feColorMatrix values="0 0 0 0 0   0 0 0 0 0   0 0 0 0 0  0 0 0 0.148862092 0" type="matrix" in="shadowBlurOuter1"></feColorMatrix>
        </filter>
    </defs>
    <g id="Page-1" stroke="none" stroke-width="1" fill="none" fill-rule="evenodd">
        <g id="IT-club" transform="translate(-778.000000, -2166.000000)" fill-rule="nonzero">
            <g id="Group-35" transform="translate(784.000000, 2169.000000)">
                <g id="Oval">
                    <use fill="black" fill-opacity="1" filter="url(#filter-2)" xlink:href="#path-1"></use>
                    <use fill="#FFFFFF" xlink:href="#path-1"></use>
                </g>
                <g id="012-growth" transform="translate(14.000000, 14.000000)" fill="#909090">
                    <path d="M19.1530612,18.3020408 L17.6673469,18.3020408 L17.6673469,4.03265306 C17.6673469,3.56734694 17.2836735,3.18367347 16.8183673,3.18367347 C16.3530612,3.18367347 15.9693878,3.56734694 15.9693878,4.03265306 L15.9693878,18.3020408 L13.1244898,18.3020408 L13.1244898,7.55918367 C13.1244898,7.09387755 12.7408163,6.71020408 12.2755102,6.71020408 C11.8102041,6.71020408 11.4265306,7.09387755 11.4265306,7.55918367 L11.4265306,18.3020408 L8.54081633,18.3020408 L8.54081633,11.7183673 C8.54081633,11.2530612 8.15714286,10.8693878 7.69183673,10.8693878 C7.22653061,10.8693878 6.84285714,11.2530612 6.84285714,11.7183673 L6.84285714,18.3020408 L3.99795918,18.3020408 L3.99795918,13.1632653 C3.99795918,12.6979592 3.61428571,12.3142857 3.14897959,12.3142857 C2.68367347,12.3142857 2.3,12.6979592 2.3,13.1632653 L2.3,18.3020408 L0.851020408,18.3020408 C0.385714286,18.3020408 0.00204081633,18.6857143 0.00204081633,19.1510204 C0.00204081633,19.6163265 0.385714286,20 0.851020408,20 L19.1081633,20 C19.5734694,20 19.9979592,19.6163265 19.9979592,19.1510204 C20.0020408,18.6816327 19.6183673,18.3020408 19.1530612,18.3020408 Z" id="Shape"></path>
                    <path d="M2.1244898,8.74693878 C2.37346939,8.70612245 8.10816327,7.37142857 12.5285714,2.93877551 L12.5285714,4.58367347 C12.5285714,5.04897959 12.9122449,5.43265306 13.377551,5.43265306 C13.8428571,5.43265306 14.2265306,5.04897959 14.2265306,4.54285714 L14.2265306,0.848979592 C14.2265306,0.383673469 13.8428571,0 13.377551,0 L9.64285714,0 C9.17755102,0 8.79387755,0.383673469 8.79387755,0.848979592 C8.79387755,1.31428571 9.17755102,1.69795918 9.64285714,1.69795918 L11.3938776,1.69795918 C7.33673469,5.86938776 1.78571429,7.1755102 1.74489796,7.1755102 C1.2755102,7.26122449 1.02244898,7.68571429 1.10408163,8.15102041 C1.23469388,8.69387755 1.81020408,8.85306122 2.1244898,8.74693878 Z" id="Shape"></path>
                </g>
            </g>
        </g>
    </g>
</svg>