<?xml version="1.0" encoding="UTF-8"?>
<svg width="62px" height="62px" viewBox="0 0 62 62" version="1.1" xmlns="http://www.w3.org/2000/svg" xmlns:xlink="http://www.w3.org/1999/xlink">
    <!-- Generator: Sketch 52 (66869) - http://www.bohemiancoding.com/sketch -->
    <title>Group 34</title>
    <desc>Created with Sketch.</desc>
    <defs>
        <circle id="path-1" cx="25" cy="25" r="25"></circle>
        <filter x="-21.0%" y="-15.0%" width="142.0%" height="142.0%" filterUnits="objectBoundingBox" id="filter-2">
            <feOffset dx="0" dy="3" in="SourceAlpha" result="shadowOffsetOuter1"></feOffset>
            <feGaussianBlur stdDeviation="3" in="shadowOffsetOuter1" result="shadowBlurOuter1"></feGaussianBlur>
            <feColorMatrix values="0 0 0 0 0   0 0 0 0 0   0 0 0 0 0  0 0 0 0.148862092 0" type="matrix" in="shadowBlurOuter1"></feColorMatrix>
        </filter>
    </defs>
    <g id="Page-1" stroke="none" stroke-width="1" fill="none" fill-rule="evenodd">
        <g id="IT-club" transform="translate(-778.000000, -2084.000000)" fill-rule="nonzero">
            <g id="Group-34" transform="translate(784.000000, 2087.000000)">
                <g id="Oval">
                    <use fill="black" fill-opacity="1" filter="url(#filter-2)" xlink:href="#path-1"></use>
                    <use fill="#FFFFFF" xlink:href="#path-1"></use>
                </g>
                <g id="010-test" transform="translate(16.000000, 12.000000)" fill="#909090">
                    <path d="M15.9336735,2.74023438 L13.8214286,2.74023438 L13.8214286,2.02148438 C13.8214286,1.64935156 13.5130408,1.34765625 13.1326531,1.34765625 L10.9483163,1.34765625 C10.6640357,0.563275391 9.89797959,0 9,0 C8.10202041,0 7.33596429,0.563275391 7.05168367,1.34765625 L4.82142857,1.34765625 C4.44104082,1.34765625 4.13265306,1.64935156 4.13265306,2.02148438 L4.13265306,2.74023438 L2.06632653,2.74023438 C0.926954082,2.74023438 0,3.64707227 0,4.76171875 L0,20.9785156 C0,22.0931621 0.926954082,23 2.06632653,23 L15.9336735,23 C17.0730459,23 18,22.0931621 18,20.9785156 L18,4.76171875 C18,3.64707227 17.0730459,2.74023438 15.9336735,2.74023438 Z M5.51020408,2.6953125 L7.62244898,2.6953125 C8.00283673,2.6953125 8.31122449,2.39361719 8.31122449,2.02148438 C8.31122449,1.64993555 8.62020918,1.34765625 9,1.34765625 C9.37979082,1.34765625 9.68877551,1.64993555 9.68877551,2.02148438 C9.68877551,2.39361719 9.99716327,2.6953125 10.377551,2.6953125 L12.4438776,2.6953125 L12.4438776,3.4140625 C12.4438776,3.78561133 12.1348929,4.08789062 11.755102,4.08789062 L6.19897959,4.08789062 C5.81918878,4.08789062 5.51020408,3.78561133 5.51020408,3.4140625 L5.51020408,2.6953125 Z M16.622449,20.9785156 C16.622449,21.3500645 16.3134643,21.6523438 15.9336735,21.6523438 L2.06632653,21.6523438 C1.68653571,21.6523438 1.37755102,21.3500645 1.37755102,20.9785156 L1.37755102,4.76171875 C1.37755102,4.39016992 1.68653571,4.08789062 2.06632653,4.08789062 L4.25112245,4.08789062 C4.53544898,4.87218164 5.30104592,5.43554688 6.19897959,5.43554688 L11.755102,5.43554688 C12.6530357,5.43554688 13.4186327,4.87218164 13.7029592,4.08789062 L15.9336735,4.08789062 C16.3134643,4.08789062 16.622449,4.39016992 16.622449,4.76171875 L16.622449,20.9785156 Z" id="Shape"></path>
                    <path d="M8.11345408,11.7013398 C7.8467602,11.4360313 7.41062755,11.4324824 7.13943367,11.6934785 L4.82542347,13.920166 L3.93088776,13.045043 C3.66194388,12.7818906 3.22581122,12.7818906 2.95682143,13.045043 C2.68783163,13.3081953 2.68783163,13.7348184 2.95682143,13.9979707 L4.33441837,15.345627 C4.46882143,15.4771133 4.64510204,15.5429688 4.82142857,15.5429688 C4.99582653,15.5429688 5.17036224,15.4785508 5.30439796,15.3495352 L8.10541837,12.6542227 C8.37661224,12.3932715 8.38019388,11.9666484 8.11345408,11.7013398 Z" id="Shape"></path>
                    <path d="M8.11345408,16.4181367 C7.8467602,16.1528281 7.41062755,16.1492793 7.13943367,16.4102754 L4.82542347,18.6369629 L3.93088776,17.7618398 C3.66194388,17.4986875 3.22581122,17.4986875 2.95682143,17.7618398 C2.68783163,18.0249922 2.68783163,18.4516152 2.95682143,18.7147676 L4.33441837,20.0624238 C4.46882143,20.1939102 4.64510204,20.2597656 4.82142857,20.2597656 C4.99582653,20.2597656 5.17036224,20.1953477 5.30439796,20.066332 L8.10541837,17.3710195 C8.37661224,17.1100684 8.38019388,16.6834453 8.11345408,16.4181367 Z" id="Shape"></path>
                    <path d="M6.68603571,9.67590234 L5.7954949,8.8046875 L6.6859898,7.93351758 C6.95497959,7.67036523 6.95497959,7.24374219 6.6859898,6.98058984 C6.41704592,6.7174375 5.98091327,6.7174375 5.71192347,6.98058984 L4.82142857,7.85175977 L3.93088776,6.98058984 C3.66194388,6.7174375 3.22581122,6.7174375 2.95682143,6.98058984 C2.68783163,7.24374219 2.68783163,7.67036523 2.95682143,7.93351758 L3.84736224,8.8046875 L2.95686735,9.67585742 C2.68787755,9.93900977 2.68787755,10.3656777 2.95686735,10.6288301 C3.22581122,10.8919375 3.66194388,10.8919824 3.93093367,10.6288301 L4.82142857,9.75761523 L5.71196939,10.6288301 C5.98091327,10.8919375 6.41704592,10.8919824 6.68603571,10.6288301 C6.95502551,10.3656777 6.95502551,9.93905469 6.68603571,9.67590234 Z" id="Shape"></path>
                    <path d="M14.5561224,8.13085938 L10.377551,8.13085938 C9.99716327,8.13085938 9.68877551,8.43255469 9.68877551,8.8046875 C9.68877551,9.17682031 9.99716327,9.47851562 10.377551,9.47851562 L14.5561224,9.47851562 C14.9365102,9.47851562 15.244898,9.17682031 15.244898,8.8046875 C15.244898,8.43255469 14.9365102,8.13085938 14.5561224,8.13085938 Z" id="Shape"></path>
                    <path d="M14.5561224,12.8476562 L10.377551,12.8476562 C9.99716327,12.8476562 9.68877551,13.1493516 9.68877551,13.5214844 C9.68877551,13.8936172 9.99716327,14.1953125 10.377551,14.1953125 L14.5561224,14.1953125 C14.9365102,14.1953125 15.244898,13.8936172 15.244898,13.5214844 C15.244898,13.1493516 14.9365102,12.8476562 14.5561224,12.8476562 Z" id="Shape"></path>
                    <path d="M14.5561224,17.5644531 L10.377551,17.5644531 C9.99716327,17.5644531 9.68877551,17.8661484 9.68877551,18.2382812 C9.68877551,18.6104141 9.99716327,18.9121094 10.377551,18.9121094 L14.5561224,18.9121094 C14.9365102,18.9121094 15.244898,18.6104141 15.244898,18.2382812 C15.244898,17.8661484 14.9365102,17.5644531 14.5561224,17.5644531 Z" id="Shape"></path>
                </g>
            </g>
        </g>
    </g>
</svg>