<?xml version="1.0" encoding="UTF-8"?>
<svg width="62px" height="62px" viewBox="0 0 62 62" version="1.1" xmlns="http://www.w3.org/2000/svg" xmlns:xlink="http://www.w3.org/1999/xlink">
    <!-- Generator: Sketch 52 (66869) - http://www.bohemiancoding.com/sketch -->
    <title>Group 33</title>
    <desc>Created with Sketch.</desc>
    <defs>
        <linearGradient x1="-1.11022302e-14%" y1="50%" x2="100%" y2="50%" id="linearGradient-1">
            <stop stop-color="#F5A803" offset="0%"></stop>
            <stop stop-color="#D14405" offset="100%"></stop>
        </linearGradient>
        <circle id="path-2" cx="25" cy="25" r="25"></circle>
        <filter x="-21.0%" y="-15.0%" width="142.0%" height="142.0%" filterUnits="objectBoundingBox" id="filter-3">
            <feOffset dx="0" dy="3" in="SourceAlpha" result="shadowOffsetOuter1"></feOffset>
            <feGaussianBlur stdDeviation="3" in="shadowOffsetOuter1" result="shadowBlurOuter1"></feGaussianBlur>
            <feColorMatrix values="0 0 0 0 0   0 0 0 0 0   0 0 0 0 0  0 0 0 0.148862092 0" type="matrix" in="shadowBlurOuter1"></feColorMatrix>
        </filter>
    </defs>
    <g id="Page-1" stroke="none" stroke-width="1" fill="none" fill-rule="evenodd">
        <g id="IT-club" transform="translate(-778.000000, -2002.000000)" fill-rule="nonzero">
            <g id="Group-33" transform="translate(784.000000, 2005.000000)">
                <g id="Oval">
                    <use fill="black" fill-opacity="1" filter="url(#filter-3)" xlink:href="#path-2"></use>
                    <use fill="url(#linearGradient-1)" xlink:href="#path-2"></use>
                </g>
                <g id="009-code" transform="translate(11.000000, 15.000000)" fill="#FFFFFF">
                    <path d="M16.8175411,0.280559796 L15.9034646,0.0335368957 C15.7858107,-0.00513994911 15.669912,0.00702290076 15.5572141,0.0699236641 C15.4441549,0.132875318 15.3678011,0.227379135 15.328566,0.353282443 L9.83078776,19.1109415 C9.79155258,19.2368957 9.80383939,19.3556743 9.86769981,19.4669211 C9.93156023,19.5783715 10.0272218,19.6534351 10.1551491,19.692112 L11.0689675,19.9392366 C11.1868795,19.9782188 11.3023652,19.9660051 11.4153728,19.9030025 C11.5284321,19.8397455 11.604631,19.7455471 11.6438145,19.6198473 L17.1417476,0.861882952 C17.1809312,0.735979644 17.1687476,0.617201018 17.1047839,0.505699746 C17.0408719,0.394249364 16.9453136,0.319185751 16.8175411,0.280559796 Z" id="Shape"></path>
                    <path d="M8.57841109,3.94223919 C8.57841109,3.81633588 8.52921224,3.70483461 8.43096941,3.60804071 L7.69391587,2.88152672 C7.59567304,2.78468193 7.48261377,2.73613232 7.35489293,2.73613232 C7.22717208,2.73613232 7.11406119,2.78473282 7.01586998,2.88152672 L0.147441683,9.65221374 C0.0490439771,9.74905852 0,9.86050891 0,9.98641221 C0,10.1123155 0.0491988528,10.2237659 0.147441683,10.3205598 L7.01581836,17.0912468 C7.11400956,17.1882443 7.22691396,17.2364885 7.3548413,17.2364885 C7.48276864,17.2364885 7.59567304,17.1880916 7.69386424,17.0912468 L8.43091778,16.3651399 C8.52916061,16.2683461 8.57835946,16.1568448 8.57835946,16.0307888 C8.57835946,15.9050382 8.52916061,15.7935878 8.43091778,15.6967939 L2.63841109,9.98641221 L8.43096941,4.27643766 C8.52936711,4.17964377 8.57841109,4.06814249 8.57841109,3.94223919 Z" id="Shape"></path>
                    <path d="M26.8251969,9.65206107 L19.9566138,2.88137405 C19.8584226,2.78458015 19.7453117,2.73597964 19.6177973,2.73597964 C19.48987,2.73597964 19.3771721,2.78458015 19.2786195,2.88137405 L18.5418757,3.60783715 C18.4436845,3.70468193 18.3946922,3.81597964 18.3946922,3.94203562 C18.3946922,4.0680916 18.4436329,4.1794402 18.5418757,4.2762341 L24.3345373,9.98636132 L18.5418757,15.6967939 C18.4436845,15.7935878 18.3946922,15.9050891 18.3946922,16.0307888 C18.3946922,16.1568957 18.4436329,16.2683461 18.5418757,16.3651399 L19.2786195,17.0912468 C19.3771721,17.1882443 19.4899216,17.2364885 19.6177973,17.2364885 C19.7453633,17.2364885 19.8584226,17.1880916 19.9566138,17.0912468 L26.8251969,10.3206107 C26.9234398,10.2238168 26.9725354,10.1121628 26.9725354,9.98625954 C26.9725354,9.86030534 26.9234398,9.74885496 26.8251969,9.65206107 Z" id="Shape"></path>
                </g>
            </g>
        </g>
    </g>
</svg>