<?xml version="1.0" encoding="UTF-8"?>
<svg width="2925px" height="609px" viewBox="0 0 2925 609" version="1.1" xmlns="http://www.w3.org/2000/svg" xmlns:xlink="http://www.w3.org/1999/xlink">
    <!-- Generator: Sketch 52 (66869) - http://www.bohemiancoding.com/sketch -->
    <title>Group 4</title>
    <desc>Created with Sketch.</desc>
    <g id="Page-1" stroke="none" stroke-width="1" fill="none" fill-rule="evenodd">
        <g id="Artboard" transform="translate(0.000000, -413.000000)" fill="#FFFFFF" fill-rule="nonzero">
            <g id="Group-4" transform="translate(-251.000000, 413.000000)">
                <g id="Group" transform="translate(0.000000, 37.000000)">
                    <path d="M661.753517,107.071405 C774.841996,97.4404848 854.422777,80.7827547 900.495861,57.0982149 C969.605487,21.5714052 1035.9228,1.5714052 1115.50359,11.5714052 C1195.08437,21.5714052 1245.34591,62.0714052 1337.49208,97.5714052 C1429.63825,133.071405 1553.19788,92.5714052 1591.59212,67.5714052 C1629.98636,42.5714052 1692.81329,18.5714052 1775.88446,25.5714052 C1858.95562,32.5714052 1916.19794,98.0714052 2014.6268,117.571405 C2113.05566,137.071405 2247.08645,138.044596 2304.32877,97.5714052 C2361.57108,57.0982149 2412.53071,33.5714052 2522.1288,33.5714052 C2681.98844,35.5714052 2721.08075,128.071405 2823,142.571405 C2823,300.904739 2823,380.071405 2823,380.071405 C1369.60362,380.071405 642.905437,380.071405 642.905437,380.071405 L642.905437,107.071405 L661.753517,107.071405 Z" id="Path-2" opacity="0.425"></path>
                    <path d="M24.30056,151.175334 C170.10392,136.329441 272.706285,110.651845 332.107654,74.1425465 C421.209707,19.3785985 506.711677,-11.4510473 609.314042,3.96377559 C711.916406,19.3785985 776.7179,81.8086313 895.520638,136.531253 C1014.32338,191.253874 1173.62705,128.823841 1223.12819,90.2867839 C1272.62933,51.7497266 1353.6312,14.7541516 1460.73366,25.5445277 C1567.83613,36.3349037 1641.63783,137.301994 1768.54076,167.360898 C1895.44368,197.419803 2068.24766,198.919959 2142.04936,136.531253 C2215.85107,74.1425465 2281.55258,37.876386 2422.85584,37.876386 C2628.96059,40.9593506 2679.36175,183.546463 2810.76478,205.897956 C2810.76478,449.965985 2810.76478,572 2810.76478,572 C936.921592,572 0,572 0,572 L0,151.175334 L24.30056,151.175334 Z" id="Path-2"></path>
                </g>
                <g id="Group" transform="translate(254.000000, 0.000000)">
                    <path d="M705.335812,114.395554 C825.824054,104.143583 910.612076,86.4116763 959.699879,61.1998354 C1033.33158,23.3820741 1103.98827,2.09237116 1188.77629,12.7372227 C1273.56431,23.3820741 1327.11464,66.4937227 1425.29025,104.282945 C1523.46585,142.072168 1655.11041,98.9605197 1696.01692,72.348391 C1736.92342,45.7362623 1803.86133,20.1886187 1892.36813,27.6400147 C1980.87492,35.0914108 2041.8628,104.815188 2146.73219,125.572648 C2251.60159,146.330109 2394.40247,147.366055 2455.39034,104.282945 C2516.37822,61.1998354 2570.67231,36.1558959 2687.44177,36.1558959 C2857.76157,38.2848662 2899.41183,136.749742 3008,152.184777 C3008,320.728259 3008,405 3008,405 C1459.50296,405 685.254438,405 685.254438,405 L685.254438,114.395554 L705.335812,114.395554 Z" id="Path-2" opacity="0.425"></path>
                    <path d="M25.8903535,160.954159 C181.232474,145.147954 290.5473,117.809395 353.834831,78.9384805 C448.766127,20.6321092 539.861815,-12.1917619 649.176641,4.22017366 C758.491467,20.6321092 827.53241,87.1004484 954.107471,145.36282 C1080.68253,203.625191 1250.40818,137.156852 1303.14779,96.1270129 C1355.8874,55.097174 1442.18858,15.7085286 1556.29792,27.1968835 C1670.40725,38.6852384 1749.03721,146.183416 1884.24239,178.186691 C2019.44757,210.189965 2203.55675,211.787159 2282.18672,145.36282 C2360.81668,78.9384805 2430.81652,40.3264319 2581.36413,40.3264319 C2800.95269,43.6088191 2854.6512,195.419223 2994.65089,219.21653 C2994.65089,479.072177 2994.65089,609 2994.65089,609 C998.216963,609 0,609 0,609 L0,160.954159 L25.8903535,160.954159 Z" id="Path-2"></path>
                </g>
            </g>
        </g>
    </g>
</svg>