<?xml version="1.0" encoding="UTF-8"?>
<svg width="1920px" height="609px" viewBox="0 0 1920 609" version="1.1" xmlns="http://www.w3.org/2000/svg" xmlns:xlink="http://www.w3.org/1999/xlink">
    <!-- Generator: Sketch 52 (66869) - http://www.bohemiancoding.com/sketch -->
    <title>Group 4</title>
    <desc>Created with Sketch.</desc>
    <g id="Page-1" stroke="none" stroke-width="1" fill="none" fill-rule="evenodd">
        <g id="IT-club" transform="translate(0.000000, -2319.000000)" fill="#FFFFFF" fill-rule="nonzero">
            <g id="Group-4" transform="translate(-607.000000, 2319.000000)">
                <g id="Group" transform="translate(0.000000, 37.000000)">
                    <path d="M594.945245,107.071405 C696.616715,97.4404848 768.163305,80.7827547 809.585014,57.0982149 C871.717579,21.5714052 931.339737,1.5714052 1002.88633,11.5714052 C1074.43292,21.5714052 1119.62024,62.0714052 1202.46366,97.5714052 C1285.30708,133.071405 1396.39257,92.5714052 1430.91066,67.5714052 C1465.42875,42.5714052 1521.9129,18.5714052 1596.5975,25.5714052 C1671.2821,32.5714052 1722.74544,98.0714052 1811.23727,117.571405 C1899.72911,137.071405 2020.22863,138.044596 2071.69196,97.5714052 C2123.1553,57.0982149 2168.97022,33.5714052 2267.50368,33.5714052 C2411.22446,35.5714052 2446.37016,128.071405 2538,142.571405 C2538,300.904739 2538,380.071405 2538,380.071405 C1231.33333,380.071405 578,380.071405 578,380.071405 L578,107.071405 L594.945245,107.071405 Z" id="Path-2" opacity="0.425"></path>
                    <path d="M21.8472622,151.175334 C152.930836,136.329441 245.174832,110.651845 298.579251,74.1425465 C378.685879,19.3785985 455.555876,-11.4510473 547.799872,3.96377559 C640.043868,19.3785985 698.303234,81.8086313 805.112072,136.531253 C911.920909,191.253874 1055.14185,128.823841 1099.64553,90.2867839 C1144.14922,51.7497266 1216.97342,14.7541516 1313.26321,25.5445277 C1409.55299,36.3349037 1475.90394,137.301994 1589.9952,167.360898 C1704.08646,197.419803 1859.44476,198.919959 1925.79571,136.531253 C1992.14665,74.1425465 2051.21518,37.876386 2178.25296,37.876386 C2363.55011,40.9593506 2408.86295,183.546463 2527,205.897956 C2527,449.965985 2527,572 2527,572 C842.333333,572 0,572 0,572 L0,151.175334 L21.8472622,151.175334 Z" id="Path-2"></path>
                </g>
                <g id="Group" transform="translate(228.000000, 0.000000)">
                    <path d="M634.051873,114.395554 C742.363112,104.143583 818.582133,86.4116763 862.708934,61.1998354 C928.899135,23.3820741 992.414986,2.09237116 1068.63401,12.7372227 C1144.85303,23.3820741 1192.99135,66.4937227 1281.24496,104.282945 C1369.49856,142.072168 1487.83862,98.9605197 1524.61095,72.348391 C1561.38329,45.7362623 1621.5562,20.1886187 1701.11816,27.6400147 C1780.68012,35.0914108 1835.50432,104.815188 1929.77522,125.572648 C2024.04611,146.330109 2152.41499,147.366055 2207.23919,104.282945 C2262.0634,61.1998354 2310.87032,36.1558959 2415.83862,36.1558959 C2568.94524,38.2848662 2606.38617,136.749742 2704,152.184777 C2704,320.728259 2704,405 2704,405 C1312,405 616,405 616,405 L616,114.395554 L634.051873,114.395554 Z" id="Path-2" opacity="0.425"></path>
                    <path d="M23.2737752,160.954159 C162.916427,145.147954 261.183477,117.809395 318.074928,78.9384805 C403.412104,20.6321092 485.301313,-12.1917619 583.568364,4.22017366 C681.835415,20.6321092 743.898815,87.1004484 857.681716,145.36282 C971.464617,203.625191 1124.03714,137.156852 1171.44669,96.1270129 C1218.85623,55.097174 1296.43548,15.7085286 1399.01249,27.1968835 C1501.5895,38.6852384 1572.27281,146.183416 1693.81364,178.186691 C1815.35447,210.189965 1980.85687,211.787159 2051.54019,145.36282 C2122.2235,78.9384805 2185.1489,40.3264319 2320.48159,40.3264319 C2517.87768,43.6088191 2566.14922,195.419223 2692,219.21653 C2692,479.072177 2692,609 2692,609 C897.333333,609 0,609 0,609 L0,160.954159 L23.2737752,160.954159 Z" id="Path-2"></path>
                </g>
            </g>
        </g>
    </g>
</svg>