<?xml version="1.0" encoding="UTF-8"?>
<svg width="58px" height="34px" viewBox="0 0 58 34" version="1.1" xmlns="http://www.w3.org/2000/svg" xmlns:xlink="http://www.w3.org/1999/xlink">
    <!-- Generator: Sketch 52 (66869) - http://www.bohemiancoding.com/sketch -->
    <title>noun_Email_1561842</title>
    <desc>Created with Sketch.</desc>
    <g id="Page-1" stroke="none" stroke-width="1" fill="none" fill-rule="evenodd">
        <g id="IT-club" transform="translate(-1205.000000, -5438.000000)" fill="#FFFFFF" fill-rule="nonzero">
            <g id="noun_Email_1561842" transform="translate(1205.000000, 5438.000000)">
                <g id="Group">
                    <path d="M0.695494321,0.241446667 C0.312977577,0.241446667 1.34883721e-07,0.538786667 1.34883721e-07,0.908113333 L1.34883721e-07,4.19978 L29,23.9498 L58,4.19978 L58,0.908113333 C58,0.538786667 57.6870226,0.241446667 57.3045058,0.241446667 L0.695494321,0.241446667 Z M1.34883721e-07,7.42892667 L1.34883721e-07,31.7622667 L15.4905523,17.9706 L1.34883721e-07,7.42892667 Z M58,7.42892667 L42.5094477,17.9706 L58,31.7622667 L58,7.42892667 Z M17.7667151,19.5122667 L2.00218037,33.5748 L55.9978198,33.5748 L40.2332849,19.5122667 L29.7587209,26.6581333 C29.3008527,26.9660121 28.6991473,26.9660121 28.2412791,26.6581333 L17.7667151,19.5122667 Z" id="Shape"></path>
                </g>
            </g>
        </g>
    </g>
</svg>