<?xml version="1.0" encoding="UTF-8"?>
<svg width="41px" height="60px" viewBox="0 0 41 60" version="1.1" xmlns="http://www.w3.org/2000/svg" xmlns:xlink="http://www.w3.org/1999/xlink">
    <!-- Generator: Sketch 52 (66869) - http://www.bohemiancoding.com/sketch -->
    <title>noun_Location_2053973</title>
    <desc>Created with Sketch.</desc>
    <g id="Page-1" stroke="none" stroke-width="1" fill="none" fill-rule="evenodd">
        <g id="IT-club" transform="translate(-934.000000, -5423.000000)" fill="#FFFFFF" fill-rule="nonzero">
            <g id="noun_Location_2053973" transform="translate(934.000000, 5423.000000)">
                <path d="M20.6666667,0 C15.2928261,-3.53622407e-06 10.139083,2.13474476 6.33920388,5.93462388 C2.53932476,9.734503 0.404576464,14.8882461 0.40458,20.2620867 C0.40458,34.7011733 18.7862533,60 20.6666667,60 C22.54708,60 40.9287533,34.7011733 40.9287533,20.2620867 C40.9287569,14.8882461 38.7940086,9.734503 34.9941295,5.93462388 C31.1942503,2.13474476 26.0405073,-3.53622407e-06 20.6666667,0 Z M20.6666667,29.7704267 C15.4153717,29.7704156 11.158363,25.5133949 11.1583667,20.2621 C11.1583703,15.0108051 15.4153851,10.7537903 20.66668,10.7537867 C25.9179749,10.753783 30.1749956,15.0107917 30.1750067,20.2620867 C30.1750102,22.7838563 29.1732427,25.2023418 27.3900823,26.9855023 C25.6069218,28.7686627 23.1884363,29.7704302 20.6666667,29.7704267 Z" id="Shape"></path>
            </g>
        </g>
    </g>
</svg>