<?xml version="1.0" encoding="UTF-8"?>
<svg width="243px" height="51px" viewBox="0 0 243 51" version="1.1" xmlns="http://www.w3.org/2000/svg" xmlns:xlink="http://www.w3.org/1999/xlink">
    <!-- Generator: Sketch 52 (66869) - http://www.bohemiancoding.com/sketch -->
    <title>Group 25</title>
    <desc>Created with Sketch.</desc>
    <g id="Page-1" stroke="none" stroke-width="1" fill="none" fill-rule="evenodd">
        <g id="IT-club" transform="translate(-1233.000000, -2835.000000)">
            <g id="Group-25" transform="translate(1234.000000, 2836.000000)">
                <polygon id="Fill-1" fill="#E3B372" points="0 39 2 39 2 0 0 0"></polygon>
                <g id="Group-24">
                    <polygon id="Stroke-2" stroke="#E3B372" points="0.389541935 39.4426667 2.59876774 39.4426667 2.59876774 0.320444444 0.389541935 0.320444444"></polygon>
                    <path d="M14.0843219,18.8542667 C11.9078832,21.0227111 10.8204445,23.6383778 10.8204445,26.7036 C10.8204445,29.7680444 11.9078832,32.3806 14.0843219,34.5397111 C16.25998,36.6996 18.8860703,37.7791556 21.9618123,37.7791556 C25.0375542,37.7791556 27.6636445,36.6996 29.8400832,34.5397111 C32.0157413,32.3806 33.1039606,29.7680444 33.1039606,26.7036 C33.1039606,23.6383778 32.0157413,21.0227111 29.8400832,18.8542667 C27.6636445,16.6866 25.0375542,15.6023778 21.9618123,15.6023778 C18.8860703,15.6023778 16.25998,16.6866 14.0843219,18.8542667 M21.9618123,13.2550444 C25.6925155,13.2550444 28.8705219,14.5671556 31.4958316,17.1913778 C34.1219219,19.8163778 35.4349671,22.9866 35.4349671,26.7036 C35.4349671,30.4042667 34.1219219,33.5659333 31.4958316,36.1901556 C28.8705219,38.8151556 25.6925155,40.1272667 21.9618123,40.1272667 C18.2475026,40.1272667 15.07418,38.8151556 12.4402832,36.1901556 C9.80560581,33.5659333 8.48865742,30.4042667 8.48865742,26.7036 C8.48865742,22.9866 9.80560581,19.8163778 12.4402832,17.1913778 C15.07418,14.5671556 18.2475026,13.2550444 21.9618123,13.2550444" id="Fill-4" fill="#E3B372"></path>
                    <path d="M14.0843219,18.8542667 C11.9078832,21.0227111 10.8204445,23.6383778 10.8204445,26.7036 C10.8204445,29.7680444 11.9078832,32.3806 14.0843219,34.5397111 C16.25998,36.6996 18.8860703,37.7791556 21.9618123,37.7791556 C25.0375542,37.7791556 27.6636445,36.6996 29.8400832,34.5397111 C32.0157413,32.3806 33.1039606,29.7680444 33.1039606,26.7036 C33.1039606,23.6383778 32.0157413,21.0227111 29.8400832,18.8542667 C27.6636445,16.6866 25.0375542,15.6023778 21.9618123,15.6023778 C18.8860703,15.6023778 16.25998,16.6866 14.0843219,18.8542667 Z M21.9618123,13.2550444 C25.6925155,13.2550444 28.8705219,14.5671556 31.4958316,17.1913778 C34.1219219,19.8163778 35.4349671,22.9866 35.4349671,26.7036 C35.4349671,30.4042667 34.1219219,33.5659333 31.4958316,36.1901556 C28.8705219,38.8151556 25.6925155,40.1272667 21.9618123,40.1272667 C18.2475026,40.1272667 15.07418,38.8151556 12.4402832,36.1901556 C9.80560581,33.5659333 8.48865742,30.4042667 8.48865742,26.7036 C8.48865742,22.9866 9.80560581,19.8163778 12.4402832,17.1913778 C15.07418,14.5671556 18.2475026,13.2550444 21.9618123,13.2550444 Z" id="Stroke-5" stroke="#E3B372"></path>
                    <polygon id="Fill-6" fill="#E3B372" points="49.4972748 37.2907889 44.0491523 48.6113444 41.8891071 48.6113444 48.3926619 35.0165667 38.9936942 15.4321222 41.4964426 15.4321222 49.4972748 32.6443444 57.4981071 15.4321222 59.9758748 15.4321222 49.4972748 37.3149"></polygon>
                    <polygon id="Stroke-7" stroke="#E3B372" points="49.4972748 37.2907889 44.0491523 48.6113444 41.8891071 48.6113444 48.3926619 35.0165667 38.9936942 15.4321222 41.4964426 15.4321222 49.4972748 32.6443444 57.4981071 15.4321222 59.9758748 15.4321222 49.4972748 37.3149"></polygon>
                    <path d="M88.5669258,28.8795111 L88.5669258,24.5270667 C88.1578677,22.3757333 87.1352226,20.4849556 85.4989903,18.8539556 C83.3233323,16.6862889 80.6972419,15.6028444 77.6215,15.6028444 C74.5457581,15.6028444 71.9196677,16.6862889 69.7440097,18.8539556 C67.567571,21.0224 66.4801323,23.6388444 66.4801323,26.7032889 C66.4801323,29.7685111 67.567571,32.3802889 69.7440097,34.5394 C71.9196677,36.7000667 74.5457581,37.7788444 77.6215,37.7788444 C80.6972419,37.7788444 83.3233323,36.6961778 85.4989903,34.5277333 C87.1352226,32.8975111 88.1578677,31.0145111 88.5669258,28.8795111 Z M90.7761516,39.4425111 L88.5669258,39.4425111 L88.5669258,34.5518444 C88.1414742,35.1227333 87.6746484,35.6687333 87.1680097,36.1898444 C84.5333323,38.8148444 81.3514226,40.1269556 77.6215,40.1269556 C73.9071903,40.1269556 70.7338677,38.8148444 68.0991903,36.1898444 C65.4652935,33.5656222 64.1483452,30.4039556 64.1483452,26.7032889 C64.1483452,22.9870667 65.4652935,19.8168444 68.0991903,17.1918444 C70.7338677,14.5676222 73.9071903,13.2547333 77.6215,13.2547333 C81.3514226,13.2547333 84.5333323,14.5676222 87.1680097,17.1918444 C87.6746484,17.7137333 88.1414742,18.2597333 88.5669258,18.8298444 L88.5669258,15.4317333 L90.7761516,15.4317333 L90.7761516,39.4425111 Z" id="Fill-8" fill="#E3B372"></path>
                    <path d="M88.5669258,28.8795111 L88.5669258,24.5270667 C88.1578677,22.3757333 87.1352226,20.4849556 85.4989903,18.8539556 C83.3233323,16.6862889 80.6972419,15.6028444 77.6215,15.6028444 C74.5457581,15.6028444 71.9196677,16.6862889 69.7440097,18.8539556 C67.567571,21.0224 66.4801323,23.6388444 66.4801323,26.7032889 C66.4801323,29.7685111 67.567571,32.3802889 69.7440097,34.5394 C71.9196677,36.7000667 74.5457581,37.7788444 77.6215,37.7788444 C80.6972419,37.7788444 83.3233323,36.6961778 85.4989903,34.5277333 C87.1352226,32.8975111 88.1578677,31.0145111 88.5669258,28.8795111 Z M90.7761516,39.4425111 L88.5669258,39.4425111 L88.5669258,34.5518444 C88.1414742,35.1227333 87.6746484,35.6687333 87.1680097,36.1898444 C84.5333323,38.8148444 81.3514226,40.1269556 77.6215,40.1269556 C73.9071903,40.1269556 70.7338677,38.8148444 68.0991903,36.1898444 C65.4652935,33.5656222 64.1483452,30.4039556 64.1483452,26.7032889 C64.1483452,22.9870667 65.4652935,19.8168444 68.0991903,17.1918444 C70.7338677,14.5676222 73.9071903,13.2547333 77.6215,13.2547333 C81.3514226,13.2547333 84.5333323,14.5676222 87.1680097,17.1918444 C87.6746484,17.7137333 88.1414742,18.2597333 88.5669258,18.8298444 L88.5669258,15.4317333 L90.7761516,15.4317333 L90.7761516,39.4425111 Z" id="Stroke-9" stroke="#E3B372"></path>
                    <polygon id="Fill-10" fill="#E3B372" points="98.1380258 39.4426667 100.346471 39.4426667 100.346471 0.320444444 98.1380258 0.320444444"></polygon>
                    <polygon id="Stroke-11" stroke="#E3B372" points="98.1380258 39.4426667 100.346471 39.4426667 100.346471 0.320444444 98.1380258 0.320444444"></polygon>
                    <polygon id="Fill-12" fill="#E3B372" points="111.144667 15.4317333 111.144667 5.21017778 113.353112 5.21017778 113.353112 15.4317333 118.261809 15.4317333 118.261809 17.6320667 113.353112 17.6320667 113.353112 39.4425111 111.144667 39.4425111 111.144667 17.6320667 106.23597 17.6320667 106.23597 15.4317333"></polygon>
                    <polygon id="Stroke-13" stroke="#E3B372" points="111.144667 15.4317333 111.144667 5.21017778 113.353112 5.21017778 113.353112 15.4317333 118.261809 15.4317333 118.261809 17.6320667 113.353112 17.6320667 113.353112 39.4425111 111.144667 39.4425111 111.144667 17.6320667 106.23597 17.6320667 106.23597 15.4317333"></polygon>
                    <polygon id="Fill-14" fill="#E3B372" points="132.81444 37.2907889 127.366317 48.6113444 125.207053 48.6113444 131.709827 35.0165667 122.310859 15.4321222 124.814388 15.4321222 132.81444 32.6443444 140.815272 15.4321222 143.293821 15.4321222 132.81444 37.3149"></polygon>
                    <polygon id="Stroke-15" stroke="#E3B372" points="132.81444 37.2907889 127.366317 48.6113444 125.207053 48.6113444 131.709827 35.0165667 122.310859 15.4321222 124.814388 15.4321222 132.81444 32.6443444 140.815272 15.4321222 143.293821 15.4321222 132.81444 37.3149"></polygon>
                    <path d="M167.631292,33.9267444 L169.743718,34.6804111 C169.358079,35.2108556 168.920918,35.7210778 168.431454,36.2087444 C166.045802,38.5856333 163.162879,39.7748556 159.783466,39.7748556 C156.419666,39.7748556 153.54377,38.5856333 151.157337,36.2087444 C148.771686,33.8310778 147.57886,30.9587444 147.57886,27.5917444 C147.57886,24.2403 148.771686,21.3749667 151.157337,18.9980778 C153.54377,16.6204111 156.419666,15.4319667 159.783466,15.4319667 C163.162879,15.4319667 166.045802,16.6204111 168.431454,18.9980778 C168.920918,19.4857444 169.358079,19.9874111 169.743718,20.5038556 L167.631292,21.2793 C167.408808,21.0125222 167.172273,20.7480778 166.920125,20.4820778 C164.948995,18.5329667 162.57037,17.5584111 159.783466,17.5584111 C157.012176,17.5584111 154.640576,18.5368556 152.669447,20.4929667 C150.698318,22.4498556 149.712363,24.8158556 149.712363,27.5917444 C149.712363,30.3684111 150.698318,32.7383 152.669447,34.7021889 C154.640576,36.6660778 157.012176,37.6476333 159.783466,37.6476333 C162.57037,37.6476333 164.948995,36.6660778 166.920125,34.7021889 C167.172273,34.4517444 167.408808,34.1927444 167.631292,33.9267444" id="Fill-16" fill="#000000"></path>
                    <path d="M167.631292,33.9267444 L169.743718,34.6804111 C169.358079,35.2108556 168.920918,35.7210778 168.431454,36.2087444 C166.045802,38.5856333 163.162879,39.7748556 159.783466,39.7748556 C156.419666,39.7748556 153.54377,38.5856333 151.157337,36.2087444 C148.771686,33.8310778 147.57886,30.9587444 147.57886,27.5917444 C147.57886,24.2403 148.771686,21.3749667 151.157337,18.9980778 C153.54377,16.6204111 156.419666,15.4319667 159.783466,15.4319667 C163.162879,15.4319667 166.045802,16.6204111 168.431454,18.9980778 C168.920918,19.4857444 169.358079,19.9874111 169.743718,20.5038556 L167.631292,21.2793 C167.408808,21.0125222 167.172273,20.7480778 166.920125,20.4820778 C164.948995,18.5329667 162.57037,17.5584111 159.783466,17.5584111 C157.012176,17.5584111 154.640576,18.5368556 152.669447,20.4929667 C150.698318,22.4498556 149.712363,24.8158556 149.712363,27.5917444 C149.712363,30.3684111 150.698318,32.7383 152.669447,34.7021889 C154.640576,36.6660778 157.012176,37.6476333 159.783466,37.6476333 C162.57037,37.6476333 164.948995,36.6660778 166.920125,34.7021889 C167.172273,34.4517444 167.408808,34.1927444 167.631292,33.9267444 Z" id="Stroke-17" stroke="#000000"></path>
                    <path d="M178.81341,20.5040111 C176.843061,22.4679 175.857106,24.8377889 175.857106,27.6144556 C175.857106,30.3903444 176.843061,32.7571222 178.81341,34.7132333 C180.783758,36.6701222 183.163165,37.6477889 185.950068,37.6477889 C188.73619,37.6477889 191.115597,36.6701222 193.085945,34.7132333 C195.057855,32.7571222 196.043029,30.3903444 196.043029,27.6144556 C196.043029,24.8377889 195.057855,22.4679 193.085945,20.5040111 C191.115597,18.5401222 188.73619,17.5585667 185.950068,17.5585667 C183.163165,17.5585667 180.783758,18.5401222 178.81341,20.5040111 M185.950068,15.4321222 C189.329481,15.4321222 192.2085,16.6205667 194.587126,18.9974556 C196.965752,21.3751222 198.154674,24.2466778 198.154674,27.6144556 C198.154674,30.9666778 196.965752,33.8312333 194.587126,36.2081222 C192.2085,38.5857889 189.329481,39.7742333 185.950068,39.7742333 C182.585487,39.7742333 179.70959,38.5857889 177.323939,36.2081222 C174.937506,33.8312333 173.745461,30.9666778 173.745461,27.6144556 C173.745461,24.2466778 174.937506,21.3751222 177.323939,18.9974556 C179.70959,16.6205667 182.585487,15.4321222 185.950068,15.4321222" id="Fill-18" fill="#000000"></path>
                    <path d="M178.81341,20.5040111 C176.843061,22.4679 175.857106,24.8377889 175.857106,27.6144556 C175.857106,30.3903444 176.843061,32.7571222 178.81341,34.7132333 C180.783758,36.6701222 183.163165,37.6477889 185.950068,37.6477889 C188.73619,37.6477889 191.115597,36.6701222 193.085945,34.7132333 C195.057855,32.7571222 196.043029,30.3903444 196.043029,27.6144556 C196.043029,24.8377889 195.057855,22.4679 193.085945,20.5040111 C191.115597,18.5401222 188.73619,17.5585667 185.950068,17.5585667 C183.163165,17.5585667 180.783758,18.5401222 178.81341,20.5040111 Z M185.950068,15.4321222 C189.329481,15.4321222 192.2085,16.6205667 194.587126,18.9974556 C196.965752,21.3751222 198.154674,24.2466778 198.154674,27.6144556 C198.154674,30.9666778 196.965752,33.8312333 194.587126,36.2081222 C192.2085,38.5857889 189.329481,39.7742333 185.950068,39.7742333 C182.585487,39.7742333 179.70959,38.5857889 177.323939,36.2081222 C174.937506,33.8312333 173.745461,30.9666778 173.745461,27.6144556 C173.745461,24.2466778 174.937506,21.3751222 177.323939,18.9974556 C179.70959,16.6205667 182.585487,15.4321222 185.950068,15.4321222 Z" id="Stroke-19" stroke="#000000"></path>
                    <path d="M203.490618,15.9413333 L205.491412,15.9413333 L205.491412,19.9064444 C205.906715,19.3153333 206.388373,18.7467778 206.937166,18.2 C208.700644,16.4437778 210.508618,15.5205556 212.361089,15.4318889 L212.361089,17.6026667 C211.101908,17.6617778 209.79667,18.3625556 208.448495,19.7065556 C206.551528,21.5817778 205.565573,23.8342222 205.491412,26.4623333 L205.491412,37.6926667 L203.490618,37.6926667 L203.490618,15.9413333 Z" id="Fill-20" fill="#000000"></path>
                    <path d="M203.490618,15.9413333 L205.491412,15.9413333 L205.491412,19.9064444 C205.906715,19.3153333 206.388373,18.7467778 206.937166,18.2 C208.700644,16.4437778 210.508618,15.5205556 212.361089,15.4318889 L212.361089,17.6026667 C211.101908,17.6617778 209.79667,18.3625556 208.448495,19.7065556 C206.551528,21.5817778 205.565573,23.8342222 205.491412,26.4623333 L205.491412,37.6926667 L203.490618,37.6926667 L203.490618,15.9413333 Z" id="Stroke-21" stroke="#000000"></path>
                    <path d="M219.253717,25.5101778 L219.253717,29.6744 C219.638575,31.5791778 220.557395,33.2552889 222.010175,34.7019556 C223.981305,36.6666222 226.35993,37.6481778 229.146834,37.6481778 C231.932175,37.6481778 234.311582,36.6666222 236.282711,34.7019556 C238.25384,32.7380667 239.239795,30.3681778 239.239795,27.5922889 C239.239795,24.8156222 238.25384,22.4465111 236.282711,20.4818444 C234.311582,18.5179556 231.932175,17.5364 229.146834,17.5364 C226.35993,17.5364 223.981305,18.5179556 222.010175,20.4818444 C220.557395,21.9292889 219.638575,23.6054 219.253717,25.5101778 Z M217.252924,17.3808444 L219.253717,17.3808444 L219.253717,20.4382889 C219.623743,19.9358444 220.046072,19.4481778 220.520705,18.9760667 C222.906356,16.6131778 225.781472,15.4317333 229.146834,15.4317333 C232.525466,15.4317333 235.404485,16.6162889 237.783111,18.9869556 C240.161737,21.3568444 241.352221,24.2252889 241.352221,27.5922889 C241.352221,30.9445111 240.161737,33.8090667 237.783111,36.1867333 C235.404485,38.5636222 232.525466,39.7528444 229.146834,39.7528444 C225.781472,39.7528444 222.906356,38.5636222 220.520705,36.1867333 C220.046072,35.7138444 219.623743,35.2269556 219.253717,34.7245111 L219.253717,47.4380667 L217.252924,47.4380667 L217.252924,17.3808444 Z" id="Fill-22" fill="#000000"></path>
                    <path d="M219.253717,25.5101778 L219.253717,29.6744 C219.638575,31.5791778 220.557395,33.2552889 222.010175,34.7019556 C223.981305,36.6666222 226.35993,37.6481778 229.146834,37.6481778 C231.932175,37.6481778 234.311582,36.6666222 236.282711,34.7019556 C238.25384,32.7380667 239.239795,30.3681778 239.239795,27.5922889 C239.239795,24.8156222 238.25384,22.4465111 236.282711,20.4818444 C234.311582,18.5179556 231.932175,17.5364 229.146834,17.5364 C226.35993,17.5364 223.981305,18.5179556 222.010175,20.4818444 C220.557395,21.9292889 219.638575,23.6054 219.253717,25.5101778 Z M217.252924,17.3808444 L219.253717,17.3808444 L219.253717,20.4382889 C219.623743,19.9358444 220.046072,19.4481778 220.520705,18.9760667 C222.906356,16.6131778 225.781472,15.4317333 229.146834,15.4317333 C232.525466,15.4317333 235.404485,16.6162889 237.783111,18.9869556 C240.161737,21.3568444 241.352221,24.2252889 241.352221,27.5922889 C241.352221,30.9445111 240.161737,33.8090667 237.783111,36.1867333 C235.404485,38.5636222 232.525466,39.7528444 229.146834,39.7528444 C225.781472,39.7528444 222.906356,38.5636222 220.520705,36.1867333 C220.046072,35.7138444 219.623743,35.2269556 219.253717,34.7245111 L219.253717,47.4380667 L217.252924,47.4380667 L217.252924,17.3808444 Z" id="Stroke-23" stroke="#000000"></path>
                </g>
            </g>
        </g>
    </g>
</svg>