<?xml version="1.0" encoding="UTF-8"?>
<svg width="117px" height="117px" viewBox="0 0 117 117" version="1.1" xmlns="http://www.w3.org/2000/svg" xmlns:xlink="http://www.w3.org/1999/xlink">
    <!-- Generator: Sketch 52 (66869) - http://www.bohemiancoding.com/sketch -->
    <title>003-search</title>
    <desc>Created with Sketch.</desc>
    <g id="Page-1" stroke="none" stroke-width="1" fill="none" fill-rule="evenodd">
        <g id="IT-club" transform="translate(-997.000000, -1831.000000)" fill-rule="nonzero">
            <g id="Group-13" transform="translate(911.000000, 1741.000000)">
                <g id="003-search" transform="translate(86.000000, 90.000000)">
                    <polygon id="Shape" fill="#334A5E" points="88 80.1232074 80.1229718 88 72 79.8770282 79.8767926 72"></polygon>
                    <path d="M113.543021,113.543021 C108.933716,118.152326 101.41321,118.152326 96.8039053,113.543021 L74,90.7391159 L90.7391159,74 L113.543021,96.8039053 C118.152326,101.41321 118.152326,108.933716 113.543021,113.543021 Z" id="Shape" fill="#FA7904"></path>
                    <path d="M78.6917269,13.4612973 C60.6635455,-4.36490021 31.6720793,-4.6088834 13.6436649,13.4612973 C-4.38474961,31.531478 -4.62816573,60.3462672 13.4000156,78.4166816 C31.1847808,96.4868623 60.4196631,96.4868623 78.4480776,78.6608985 C96.4764921,60.8349347 96.4764921,31.531478 78.6917269,13.4612973 Z" id="Shape" fill="#40596B"></path>
                    <path d="M71.3750168,71.5699879 C57.2492326,85.5171901 34.3557846,85.5171901 20.4733395,71.3252754 C6.34755535,57.3780732 6.59112747,34.3772144 20.7169116,20.4300121 C34.8426958,6.48280991 57.7361438,6.48280991 71.6185889,20.6747246 C85.5008009,34.622161 85.5008009,57.6227856 71.3750168,71.5699879 Z" id="Shape" fill="#F2F2F2"></path>
                    <path d="M64.3323762,63.6199911 C54.1088777,73.460003 37.5566689,73.460003 27.5766093,63.6199911 C17.3531108,53.5399565 17.5965496,37.4600435 27.5766093,27.3800089 C37.8001077,17.539997 54.3523165,17.539997 64.3323762,27.3800089 C74.5558746,37.4600435 74.5558746,53.5401862 64.3323762,63.6199911 Z" id="Shape" fill="#00C0F1"></path>
                    <path d="M58.727268,58.727268 C51.6969588,65.7575773 40.3030412,65.7575773 33.272732,58.727268 C26.2424227,51.6969588 26.2424227,40.3030412 33.272732,33.272732 C40.3030412,26.2424227 51.6969588,26.2424227 58.727268,33.272732 C65.7575773,40.3028092 65.7575773,51.6969588 58.727268,58.727268 Z" id="Shape" fill="#25D9F8"></path>
                    <g id="Group" transform="translate(27.000000, 34.000000)" fill="#FFFFFF">
                        <ellipse id="Oval" cx="4.03247059" cy="4.02071429" rx="3.93364706" ry="3.98047619"></ellipse>
                        <ellipse id="Oval" cx="9.88047059" cy="7.84690476" rx="1.96682353" ry="1.9902381"></ellipse>
                    </g>
                    <polygon id="Shape" fill="#AD5708" points="90.4286035 74 74 90.1237137 80.8061133 97 97 80.6391495"></polygon>
                </g>
            </g>
        </g>
    </g>
</svg>