<?xml version="1.0" encoding="UTF-8"?>
<svg width="104px" height="94px" viewBox="0 0 104 94" version="1.1" xmlns="http://www.w3.org/2000/svg" xmlns:xlink="http://www.w3.org/1999/xlink">
    <!-- Generator: Sketch 52 (66869) - http://www.bohemiancoding.com/sketch -->
    <title>Group 6</title>
    <desc>Created with Sketch.</desc>
    <g id="Page-1" stroke="none" stroke-width="1" fill="none" fill-rule="evenodd">
        <g id="IT-club" transform="translate(-1358.000000, -1025.000000)" fill-rule="nonzero">
            <g id="Group-6" transform="translate(1358.000000, 1025.000000)">
                <g id="Group-4" transform="translate(0.000000, 8.561265)">
                    <g id="007-laptop-1">
                        <polygon id="Rectangle-path" fill="#40596B" points="37.9880162 72.6936394 65.8308649 72.6936394 65.8308649 81.1541549 37.9880162 81.1541549"></polygon>
                        <polygon id="Rectangle-path" fill="#2B3B4E" points="37.9880162 72.6936394 65.8308649 72.6936394 65.8308649 76.701252 37.9880162 76.701252"></polygon>
                        <path d="M100.098986,73.58422 L3.60717068,73.58422 C1.69086126,73.58422 0.112724084,72.025704 0.112724084,70.1332203 L0.112724084,3.5623223 C0.112724084,1.66983858 1.69086126,0.111322572 3.60717068,0.111322572 L99.9862623,0.111322572 C101.902572,0.111322572 103.480709,1.66983858 103.480709,3.5623223 L103.480709,70.1332203 C103.593433,72.025704 102.015296,73.58422 100.098986,73.58422 Z" id="Shape" fill="#F2F1F1"></path>
                        <path d="M0.112724084,60.5594791 L0.112724084,70.1332203 C0.112724084,72.025704 1.69086126,73.58422 3.60717068,73.58422 L100.098986,73.58422 C102.015296,73.58422 103.593433,72.025704 103.593433,70.1332203 L103.593433,60.5594791 L0.112724084,60.5594791 Z" id="Shape" fill="#40596B"></path>
                        <polygon id="Rectangle-path" fill="#FFFFFF" points="5.63620419 5.23216088 98.0699528 5.23216088 98.0699528 54.6593828 5.63620419 54.6593828"></polygon>
                        <ellipse id="Oval" fill="#E6E9EE" cx="51.8530785" cy="66.6822206" rx="3.71989476" ry="3.67364487"></ellipse>
                        <path d="M70.6780005,81.1541549 L33.704501,81.1541549 C31.3372953,81.1541549 29.4209859,83.0466386 29.4209859,85.3844126 L75.0742398,85.3844126 C74.9615157,83.0466386 73.0452063,81.1541549 70.6780005,81.1541549 Z" id="Shape" fill="#40596B"></path>
                    </g>
                </g>
                <path d="M26.3104247,24.172983 L78.4658945,24.172983 C82.8841725,24.172983 86.4658945,27.754705 86.4658945,32.172983 L86.4658945,43.3675889 C86.4658945,47.7858669 82.8841725,51.3675889 78.4658945,51.3675889 L26.3104247,51.3675889 C21.8921467,51.3675889 18.3104247,47.7858669 18.3104247,43.3675889 L18.3104247,32.172983 C18.3104247,27.754705 21.8921467,24.172983 26.3104247,24.172983 Z" id="Rectangle-13" fill="#40596B"></path>
                <g id="012-select" transform="translate(31.025997, 0.000000)">
                    <path d="M7.88348919,9.06486864 L1.77993137,9.06486864 C1.35856732,9.06486864 1.01724582,8.70394709 1.01724582,8.25892733 L1.01724582,1.81271095 C1.01724582,1.36769118 1.35856732,1.00720763 1.77993137,1.00720763 L7.88348919,1.00720763 C8.30485325,1.00720763 8.64658945,1.36769118 8.64658945,1.81271095 L8.64658945,8.25892733 C8.64658945,8.70394709 8.30485325,9.06486864 7.88348919,9.06486864 Z" id="Shape" fill="#25D9F8"></path>
                    <path d="M7.88348919,38.7774936 L1.77993137,38.7774936 C1.35856732,38.7774936 1.01724582,38.41701 1.01724582,37.9715523 L1.01724582,31.5253359 C1.01724582,31.0803162 1.35856732,30.7198326 1.77993137,30.7198326 L7.88348919,30.7198326 C8.30485325,30.7198326 8.64658945,31.0803162 8.64658945,31.5253359 L8.64658945,37.9715523 C8.64658945,38.41701 8.30485325,38.7774936 7.88348919,38.7774936 Z" id="Shape" fill="#25D9F8"></path>
                    <path d="M37.3836179,9.06486864 L31.2800601,9.06486864 C30.858696,9.06486864 30.5173745,8.70394709 30.5173745,8.25892733 L30.5173745,1.81271095 C30.5173745,1.36769118 30.858696,1.00720763 31.2800601,1.00720763 L37.3836179,1.00720763 C37.8053966,1.00720763 38.1467181,1.36769118 38.1467181,1.81271095 L38.1467181,8.25892733 C38.1467181,8.70394709 37.8053966,9.06486864 37.3836179,9.06486864 Z" id="Shape" fill="#25D9F8"></path>
                    <path d="M37.3836179,30.7198326 L31.2800601,30.7198326 C30.858696,30.7198326 30.5173745,31.0803162 30.5173745,31.5253359 L30.5173745,37.9715523 C30.5173745,38.41701 30.858696,38.7774936 31.2800601,38.7774936 L33.6091748,38.7774936 C33.9036319,38.7774936 34.1727907,38.5983469 34.2984533,38.3162674 L34.3652247,38.3162674 C34.4913021,38.5983469 34.7600461,38.7774936 35.0549179,38.7774936 L37.3836179,38.7774936 C37.8053966,38.7774936 38.1467181,38.41701 38.1467181,37.9715523 L38.1467181,31.5253359 C38.1467181,31.0803162 37.8053966,30.7198326 37.3836179,30.7198326 Z" id="Shape" fill="#25D9F8"></path>
                    <polygon id="Shape" fill="#FA7904" points="34.8408843 36.7630784 25.9397683 55.9000233 34.8408843 51.8711467 43.7415701 55.9000233"></polygon>
                    <g id="Group">
                        <path d="M8.93449513,9.89533545 L0.992913548,9.89533545 C0.444652644,9.89533545 0,9.45296081 0,8.90601704 L0,0.989748705 C0,0.442374639 0.444652644,0 0.992913548,0 L8.93449513,0 C9.48232436,0 9.926977,0.442374639 9.926977,0.989748705 L9.926977,8.90601704 C9.926977,9.45296081 9.48232436,9.89533545 8.93449513,9.89533545 Z M1.98539542,7.91626834 L7.94158158,7.91626834 L7.94158158,1.97906711 L1.98539542,1.97906711 L1.98539542,7.91626834 Z" id="Shape" fill="#00C0F1"></path>
                        <path d="M8.93449513,39.5813417 L0.992913548,39.5813417 C0.444652644,39.5813417 0,39.138967 0,38.5920233 L0,30.6757549 C0,30.1283809 0.444652644,29.6860062 0.992913548,29.6860062 L8.93449513,29.6860062 C9.48232436,29.6860062 9.926977,30.1283809 9.926977,30.6757549 L9.926977,38.5920233 C9.926977,39.138967 9.48232436,39.5813417 8.93449513,39.5813417 Z M1.98539542,37.6022746 L7.94158158,37.6022746 L7.94158158,31.6650733 L1.98539542,31.6650733 L1.98539542,37.6022746 Z" id="Shape" fill="#00C0F1"></path>
                        <path d="M38.715426,9.89533545 L30.7738445,9.89533545 C30.2255835,9.89533545 29.7809309,9.45296081 29.7809309,8.90601704 L29.7809309,0.989748705 C29.7809309,0.442374639 30.2255835,0 30.7738445,0 L38.715426,0 C39.2632554,0 39.7079079,0.442374639 39.7079079,0.989748705 L39.7079079,8.90601704 C39.7079079,9.45296081 39.2632554,9.89533545 38.715426,9.89533545 Z M31.7663263,7.91626834 L37.7225125,7.91626834 L37.7225125,1.97906711 L31.7663263,1.97906711 L31.7663263,7.91626834 Z" id="Shape" fill="#00C0F1"></path>
                        <path d="M30.7738445,35.6232076 L8.93449513,35.6232076 C8.38623412,35.6232076 7.94158158,35.1808328 7.94158158,34.6338892 L7.94158158,31.6650733 L4.96370428,31.6650733 C4.41544338,31.6650733 3.97079085,31.2226987 3.97079085,30.6757549 L3.97079085,8.90601704 C3.97079085,8.35864298 4.41544338,7.91626834 4.96370428,7.91626834 L7.94158158,7.91626834 L7.94158158,4.94788282 C7.94158158,4.40050875 8.38623412,3.95813422 8.93449513,3.95813422 L30.7738445,3.95813422 C31.3216737,3.95813422 31.7663263,4.40050875 31.7663263,4.94788282 L31.7663263,7.91626834 L34.7446353,7.91626834 C35.2924645,7.91626834 35.7371172,8.35864298 35.7371172,8.90601704 L35.7371172,30.6757549 C35.7371172,31.2226987 35.2924645,31.6650733 34.7446353,31.6650733 L31.7663263,31.6650733 L31.7663263,34.6338892 C31.7663263,35.1808328 31.3216737,35.6232076 30.7738445,35.6232076 Z M9.926977,33.6441405 L29.7809309,33.6441405 L29.7809309,30.6757549 C29.7809309,30.1283809 30.2255835,29.6860062 30.7738445,29.6860062 L33.7517217,29.6860062 L33.7517217,9.89533545 L30.7738445,9.89533545 C30.2255835,9.89533545 29.7809309,9.45296081 29.7809309,8.90601704 L29.7809309,5.93720123 L9.926977,5.93720123 L9.926977,8.90601704 C9.926977,9.45296081 9.48232436,9.89533545 8.93449513,9.89533545 L5.95618616,9.89533545 L5.95618616,29.6860062 L8.93449513,29.6860062 C9.48232436,29.6860062 9.926977,30.1283809 9.926977,30.6757549 L9.926977,33.6441405 Z" id="Shape" fill="#00C0F1"></path>
                        <path d="M38.715426,39.5813417 L35.6844495,39.5813417 C35.3015302,39.5813417 34.951852,39.361015 34.7873738,39.0154636 L34.7446353,38.9242346 L34.7018968,39.0154636 C34.5369868,39.361015 34.1877403,39.5813417 33.8043893,39.5813417 L30.7738445,39.5813417 C30.2255835,39.5813417 29.7809309,39.138967 29.7809309,38.5920233 L29.7809309,30.6757549 C29.7809309,30.1283809 30.2255835,29.6860062 30.7738445,29.6860062 L38.715426,29.6860062 C39.2632554,29.6860062 39.7079079,30.1283809 39.7079079,30.6757549 L39.7079079,38.5920233 C39.7079079,39.138967 39.2632554,39.5813417 38.715426,39.5813417 Z M36.313007,37.6022746 L37.7225125,37.6022746 L37.7225125,31.6650733 L31.7663263,31.6650733 L31.7663263,37.6022746 L33.1762635,37.6022746 L33.8471278,36.1895159 C34.0120377,35.8439645 34.3612843,35.6232076 34.7446353,35.6232076 C35.1275545,35.6232076 35.4772328,35.8439645 35.6421427,36.1895159 L36.313007,37.6022746 Z" id="Shape" fill="#00C0F1"></path>
                        <path d="M43.6786986,56.4036271 C43.5427127,56.4036271 43.4058633,56.3760862 43.2759211,56.3184226 L34.7446353,52.5393039 L26.2133494,56.3184226 C25.8330203,56.4858193 25.3892311,56.4014755 25.0995594,56.1049811 C24.8094559,55.8089171 24.7352033,55.3648212 24.9126326,54.990438 L33.8471278,36.1895159 C34.0120377,35.8439645 34.3612843,35.6232076 34.7446353,35.6232076 C35.1275545,35.6232076 35.4772328,35.8439645 35.6421427,36.1895159 L44.5762062,54.990438 C44.7540672,55.3648212 44.6793829,55.8089171 44.3897111,56.1049811 C44.1980356,56.3007792 43.9407415,56.4036271 43.6786986,56.4036271 Z M34.7446353,50.4664258 C34.8814847,50.4664258 35.0196292,50.4939667 35.1474128,50.5516302 L41.6358871,53.4262047 L34.7446353,38.9242346 L27.8533835,53.4262047 L34.341426,50.5516302 C34.4696414,50.4939667 34.6073542,50.4664258 34.7446353,50.4664258 Z" id="Shape" fill="#DF710E"></path>
                    </g>
                </g>
            </g>
        </g>
    </g>
</svg>