<?xml version="1.0" encoding="UTF-8"?>
<svg width="104px" height="84px" viewBox="0 0 104 84" version="1.1" xmlns="http://www.w3.org/2000/svg" xmlns:xlink="http://www.w3.org/1999/xlink">
    <!-- Generator: Sketch 52 (66869) - http://www.bohemiancoding.com/sketch -->
    <title>Group 3</title>
    <desc>Created with Sketch.</desc>
    <g id="Page-1" stroke="none" stroke-width="1" fill="none" fill-rule="evenodd">
        <g id="IT-club" transform="translate(-452.000000, -1033.000000)" fill-rule="nonzero">
            <g id="Group-3" transform="translate(452.000000, 1033.000000)">
                <g id="007-laptop-1">
                    <polygon id="Rectangle-path" fill="#40596B" points="36.8130314 71.324341 63.7946895 71.324341 63.7946895 79.6254894 36.8130314 79.6254894"></polygon>
                    <polygon id="Rectangle-path" fill="#2B3B4E" points="36.8130314 71.324341 63.7946895 71.324341 63.7946895 75.2564639 36.8130314 75.2564639"></polygon>
                    <path d="M97.002884,72.1981461 L3.49559942,72.1981461 C1.63856223,72.1981461 0.109237482,70.6689872 0.109237482,68.8121513 L0.109237482,3.49522038 C0.109237482,1.63838456 1.63856223,0.109225637 3.49559942,0.109225637 L96.8936465,0.109225637 C98.7506837,0.109225637 100.280008,1.63838456 100.280008,3.49522038 L100.280008,68.8121513 C100.389246,70.6689872 98.8599212,72.1981461 97.002884,72.1981461 Z" id="Shape" fill="#F2F1F1"></path>
                    <path d="M0.109237482,59.4187465 L0.109237482,68.8121513 C0.109237482,70.6689872 1.63856223,72.1981461 3.49559942,72.1981461 L97.002884,72.1981461 C98.8599212,72.1981461 100.389246,70.6689872 100.389246,68.8121513 L100.389246,59.4187465 L0.109237482,59.4187465 Z" id="Shape" fill="#40596B"></path>
                    <polygon id="Rectangle-path" fill="#FFFFFF" points="5.4618741 5.13360494 95.0366093 5.13360494 95.0366093 53.6297878 5.4618741 53.6297878"></polygon>
                    <ellipse id="Oval" fill="#E6E9EE" cx="50.2492417" cy="65.4261566" rx="3.60483691" ry="3.60444602"></ellipse>
                    <path d="M68.4919012,79.6254894 L32.6620071,79.6254894 C30.36802,79.6254894 28.5109828,81.4823252 28.5109828,83.7760636 L72.752163,83.7760636 C72.6429255,81.4823252 70.7858883,79.6254894 68.4919012,79.6254894 Z" id="Shape" fill="#40596B"></path>
                </g>
                <path d="M69.9905213,36.0705882 L58.3234078,36.0705882 C57.9630691,36.0705882 57.6682464,36.3653018 57.6682464,36.7255073 L57.6682464,49.7450809 C57.6682464,50.1052864 57.9630691,50.4 58.3234078,50.4 L69.9905213,50.4 L69.9905213,36.0705882 Z" id="Shape" fill="#FA7904"></path>
                <path d="M61.9498081,49.7450809 L61.9498081,36.7255073 C61.9498081,36.3653018 62.2411148,36.0705882 62.5971564,36.0705882 L58.3155947,36.0705882 C57.9595532,36.0705882 57.6682464,36.3653018 57.6682464,36.7255073 L57.6682464,49.7450809 C57.6682464,50.1052864 57.9595532,50.4 58.3155947,50.4 L62.5971564,50.4 C62.2411148,50.4 61.9498081,50.1052864 61.9498081,49.7450809 Z" id="Shape" fill="#C86104"></path>
                <path d="M71.9615327,30.7690368 L82.3127962,30.7690368 L82.3127962,16.4153276 C82.3127962,15.8116033 81.8131964,15.3176471 81.2025745,15.3176471 L18.8542976,15.3176471 C18.2436756,15.3176471 17.7440758,15.8116033 17.7440758,16.4153276 L17.7440758,31.0199666 C17.7440758,31.6236908 18.2436756,32.1176471 18.8542976,32.1176471 L70.4203229,32.1176471 C70.5144697,31.3589303 71.1692785,30.7690368 71.9615327,30.7690368 Z" id="Shape" fill="#00C0F1"></path>
                <path d="M93.9576785,5.43529412 L5.60630252,5.43529412 C5.23363702,5.43529412 4.92890995,5.7344906 4.92890995,6.10060975 L4.92890995,10.8705882 L94.6350711,10.8705882 L94.6350711,6.10060975 C94.6350711,5.7344906 94.3301227,5.43529412 93.9576785,5.43529412 Z" id="Shape" fill="#FA7904"></path>
                <g id="Group" transform="translate(17.251185, 36.070588)" fill="#25D9F8">
                    <path d="M20.5311922,3.52287861 L1.84972494,3.52287861 C0.930411202,3.52287861 0.185105664,2.78276324 0.185105664,1.86935902 C0.185105664,0.955954795 0.930411202,0.215839424 1.84972494,0.215839424 L20.5311922,0.215839424 C21.450506,0.215839424 22.1958115,0.955954795 22.1958115,1.86935902 C22.1958115,2.78276324 21.450506,3.52287861 20.5311922,3.52287861 Z" id="Shape"></path>
                    <path d="M20.5311922,8.92150986 L1.84972494,8.92150986 C0.930411202,8.92150986 0.185105664,8.18139449 0.185105664,7.26799026 C0.185105664,6.35458604 0.930411202,5.61447067 1.84972494,5.61447067 L20.5311922,5.61447067 C21.450506,5.61447067 22.1958115,6.35458604 22.1958115,7.26799026 C22.1958115,8.18117402 21.450506,8.92150986 20.5311922,8.92150986 Z" id="Shape"></path>
                    <path d="M20.5311922,14.3201411 L1.84972494,14.3201411 C0.930411202,14.3201411 0.185105664,13.5800257 0.185105664,12.6666215 C0.185105664,11.7532173 0.930411202,11.0131019 1.84972494,11.0131019 L20.5311922,11.0131019 C21.450506,11.0131019 22.1958115,11.7532173 22.1958115,12.6666215 C22.1958115,13.5800257 21.450506,14.3201411 20.5311922,14.3201411 Z" id="Shape"></path>
                    <path d="M35.192271,3.52287861 L25.5760984,3.52287861 C24.6567847,3.52287861 23.9114791,2.78276324 23.9114791,1.86935902 C23.9114791,0.955954795 24.6567847,0.215839424 25.5760984,0.215839424 L35.192271,0.215839424 C36.1115848,0.215839424 36.8568903,0.955954795 36.8568903,1.86935902 C36.8568903,2.78276324 36.1115848,3.52287861 35.192271,3.52287861 Z" id="Shape"></path>
                    <path d="M35.192271,8.92150986 L25.5760984,8.92150986 C24.6567847,8.92150986 23.9114791,8.18139449 23.9114791,7.26799026 C23.9114791,6.35458604 24.6567847,5.61447067 25.5760984,5.61447067 L35.192271,5.61447067 C36.1115848,5.61447067 36.8568903,6.35458604 36.8568903,7.26799026 C36.8568903,8.18117402 36.1115848,8.92150986 35.192271,8.92150986 Z" id="Shape"></path>
                    <path d="M35.192271,14.3201411 L25.5760984,14.3201411 C24.6567847,14.3201411 23.9114791,13.5800257 23.9114791,12.6666215 C23.9114791,11.7532173 24.6567847,11.0131019 25.5760984,11.0131019 L35.192271,11.0131019 C36.1115848,11.0131019 36.8568903,11.7532173 36.8568903,12.6666215 C36.8568903,13.5800257 36.1115848,14.3201411 35.192271,14.3201411 Z" id="Shape"></path>
                </g>
                <g id="Group-2" transform="translate(69.990521, 25.200000)">
                    <g id="014-touch-screen">
                        <g id="Group" fill="#40596B">
                            <path d="M33.6463445,5.26470917 L33.6463445,7.54573288 L17.8634058,10.1273752 L0.00117873489,7.54573288 L0.00117873489,5.26470917 C0.00117873489,2.3564068 2.21323549,0 4.9431855,0 L28.7043377,0 C31.4328947,0 33.6463445,2.3564068 33.6463445,5.26470917 Z" id="Shape"></path>
                            <path d="M33.6463445,50.618944 L33.6463445,53.2142923 C33.6463445,56.1224805 31.4328947,58.4790015 28.7043377,58.4790015 L27.3290756,58.4790015 L4.9431855,58.4790015 C2.21323549,58.4790015 0.00117873489,56.1225947 0.00117873489,53.2142923 L0.00117873489,50.618944 L16.8237616,48.1429522 L33.6463445,50.618944 Z" id="Shape"></path>
                        </g>
                        <polygon id="Rectangle-path" fill="#FFFFFF" points="0 7.65145814 33.6475232 7.65145814 33.6475232 50.8275434 0 50.8275434"></polygon>
                        <polygon id="Shape" fill="#F3F1F1" points="33.6475232 50.8275434 5.19758489 50.8275434 29.4866905 7.84368616 29.4866905 7.65145814 33.6475232 7.65145814"></polygon>
                        <ellipse id="Oval" fill="#E6E9EE" cx="17.0973187" cy="54.5166393" rx="2.32523534" ry="2.32276408"></ellipse>
                    </g>
                    <path d="M33.6475232,8.68167512 C33.6475232,8.11505578 33.1860554,7.65145814 32.6220392,7.65145814 L1.29904108,7.65145814 C0.735024893,7.65145814 0.273557099,8.11505578 0.273557099,8.68167512 L0.273557099,11.6266534 L33.6475232,11.6266534 L33.6475232,8.68167512 Z" id="Shape" fill="#FA7904"></path>
                    <g id="Group" transform="translate(8.480270, 27.326636)" fill="#25D9F8">
                        <path d="M15.5954218,3.24818712 L1.60933641,3.24818712 C0.759531286,3.24818712 0.0705777316,2.56381104 0.0705777316,1.71919676 C0.0705777316,0.874582486 0.759531286,0.190206401 1.60933641,0.190206401 L15.5954218,0.190206401 C16.445227,0.190206401 17.1341805,0.874582486 17.1341805,1.71919676 C17.1341805,2.56360717 16.445227,3.24818712 15.5954218,3.24818712 Z" id="Shape"></path>
                        <path d="M15.5954218,7.9629818 L1.60933641,7.9629818 C0.759531286,7.9629818 0.0705777316,7.27860571 0.0705777316,6.43399144 C0.0705777316,5.58958103 0.759531286,4.90500108 1.60933641,4.90500108 L15.5954218,4.90500108 C16.445227,4.90500108 17.1341805,5.58958103 17.1341805,6.43399144 C17.1341805,7.27860571 16.445227,7.9629818 15.5954218,7.9629818 Z" id="Shape"></path>
                        <path d="M15.5954218,12.6773687 L1.60933641,12.6773687 C0.759531286,12.6773687 0.0705777316,11.9929927 0.0705777316,11.1483784 C0.0705777316,10.303968 0.759531286,9.61938802 1.60933641,9.61938802 L15.5954218,9.61938802 C16.445227,9.61938802 17.1341805,10.303968 17.1341805,11.1483784 C17.1341805,11.9929927 16.445227,12.6773687 15.5954218,12.6773687 Z" id="Shape"></path>
                    </g>
                    <path d="M30.4398092,23.7695349 C30.4398092,24.3361543 29.9774488,24.7997519 29.4123416,24.7997519 L4.41302891,24.7997519 C3.84792176,24.7997519 3.38556137,24.3361543 3.38556137,23.7695349 L3.38556137,15.2714811 C3.38556137,14.7048618 3.84792176,14.2412641 4.41302891,14.2412641 L29.4123416,14.2412641 C29.9774488,14.2412641 30.4398092,14.7048618 30.4398092,15.2714811 L30.4398092,23.7695349 Z" id="Shape" fill="#00C0F1"></path>
                    <path d="M26.7950751,48.2665451 C26.7950751,48.8331645 26.3309554,49.2967621 25.7636979,49.2967621 L8.09476183,49.2967621 C7.52750435,49.2967621 7.06338459,48.8331645 7.06338459,48.2665451 L7.06338459,44.7823513 C7.06338459,44.215732 7.52750435,43.7521343 8.09476183,43.7521343 L25.7636979,43.7521343 C26.3309554,43.7521343 26.7950751,44.215732 26.7950751,44.7823513 L26.7950751,48.2665451 Z" id="Shape" fill="#C86104"></path>
                </g>
            </g>
        </g>
    </g>
</svg>