<?xml version="1.0" encoding="UTF-8"?>
<svg width="107px" height="103px" viewBox="0 0 107 103" version="1.1" xmlns="http://www.w3.org/2000/svg" xmlns:xlink="http://www.w3.org/1999/xlink">
    <!-- Generator: Sketch 52 (66869) - http://www.bohemiancoding.com/sketch -->
    <title>Group 4</title>
    <desc>Created with Sketch.</desc>
    <g id="Page-1" stroke="none" stroke-width="1" fill="none" fill-rule="evenodd">
        <g id="IT-club" transform="translate(-753.000000, -1017.000000)" fill-rule="nonzero">
            <g id="Group-4" transform="translate(753.000000, 1017.000000)">
                <g id="007-laptop-1" transform="translate(0.000000, 15.474194)">
                    <polygon id="Rectangle-path" fill="#40596B" points="39.0904505 74.4550523 67.7413148 74.4550523 67.7413148 83.1205714 39.0904505 83.1205714"></polygon>
                    <polygon id="Rectangle-path" fill="#2B3B4E" points="39.0904505 74.4550523 67.7413148 74.4550523 67.7413148 78.5597718 39.0904505 78.5597718"></polygon>
                    <path d="M103.003917,75.3672122 L3.71185287,75.3672122 C1.73993103,75.3672122 0.115995402,73.7709323 0.115995402,71.8325925 L0.115995402,3.64863962 C0.115995402,1.71029982 1.73993103,0.114019988 3.71185287,0.114019988 L102.887922,0.114019988 C104.859843,0.114019988 106.483779,1.71029982 106.483779,3.64863962 L106.483779,71.8325925 C106.599775,73.7709323 104.975839,75.3672122 103.003917,75.3672122 Z" id="Shape" fill="#F2F1F1"></path>
                    <path d="M0.115995402,62.0268735 L0.115995402,71.8325925 C0.115995402,73.7709323 1.73993103,75.3672122 3.71185287,75.3672122 L103.003917,75.3672122 C104.975839,75.3672122 106.599775,73.7709323 106.599775,71.8325925 L106.599775,62.0268735 L0.115995402,62.0268735 Z" id="Shape" fill="#40596B"></path>
                    <polygon id="Rectangle-path" fill="#FFFFFF" points="5.7997701 5.35893944 100.916 5.35893944 100.916 55.9838142 5.7997701 55.9838142"></polygon>
                    <ellipse id="Oval" fill="#E6E9EE" cx="53.357885" cy="68.2979729" rx="3.82784827" ry="3.76265961"></ellipse>
                    <path d="M72.7291171,83.1205714 L34.6826252,83.1205714 C32.2467218,83.1205714 30.2747999,85.0589112 30.2747999,87.4533309 L77.2529378,87.4533309 C77.1369424,85.0589112 75.1650205,83.1205714 72.7291171,83.1205714 Z" id="Shape" fill="#40596B"></path>
                </g>
                <g id="010-discount" transform="translate(21.982105, 0.000000)">
                    <path d="M62.061192,18.1357958 C62.0645321,18.1318677 62.0683671,18.1282966 62.0717072,18.1243685 C62.0845728,18.1090131 62.0964488,18.0930625 62.1084485,18.077231 C62.1141391,18.0694938 62.1204482,18.0619947 62.126015,18.0541384 C62.1346746,18.0416398 62.1423445,18.0285461 62.1502618,18.0156904 C62.157808,18.0033108 62.1659727,17.9914074 62.1731478,17.9786708 C62.1780961,17.9696242 62.1823022,17.9601015 62.1870031,17.9508168 C62.195539,17.933914 62.2044459,17.9171302 62.2119921,17.8996322 C62.2144663,17.8937995 62.2163219,17.8877287 62.2186724,17.8820151 C62.2272082,17.8609461 62.2356204,17.839758 62.2424243,17.8179748 C62.243414,17.8148799 62.2440325,17.8115469 62.2448985,17.808452 C62.252321,17.7840501 62.2591249,17.759529 62.2643207,17.7342938 C62.2702586,17.7062018 62.2747121,17.6776336 62.2778048,17.6490654 C62.2779285,17.6478751 62.2779285,17.6465657 62.2780522,17.6454944 C62.2808975,17.6166881 62.2825057,17.5877628 62.2826294,17.5587185 L62.2826294,17.5575282 L62.2826294,0.89275567 C62.2826294,0.399597438 61.8672178,0 61.354819,0 L42.7984857,0 C42.2859632,0 41.8706753,0.399597438 41.8706753,0.89275567 C41.8706753,0.943583226 41.8761184,0.993101408 41.8845306,1.04154828 C41.8761184,1.08999516 41.8706753,1.13951334 41.8706753,1.19034089 L41.8706753,17.5575282 L41.8706753,17.5585995 C41.870799,17.5876438 41.8724072,17.6165691 41.8752525,17.6453753 C41.8753762,17.6465657 41.8753762,17.6478751 41.8754999,17.6489464 C41.8785926,17.6775145 41.8830461,17.7059637 41.888984,17.7341748 C41.8941798,17.75941 41.9011074,17.783931 41.9084062,17.808333 C41.9093959,17.8114279 41.9100144,17.8147608 41.9110041,17.8178557 C41.917808,17.8395199 41.9260965,17.8604699 41.9345086,17.8813009 C41.9369828,17.8873716 41.9388384,17.8934424 41.9414363,17.8995131 C41.9489825,17.9168921 41.9577657,17.9336759 41.9663016,17.9504597 C41.9711262,17.9598634 41.9752086,17.9693861 41.9802806,17.9785518 C41.9874557,17.9911694 41.9954967,18.0031918 42.0031666,18.0155714 C42.0110839,18.028427 42.0187538,18.0416398 42.0274134,18.0540194 C42.0329802,18.0619947 42.0392893,18.0694938 42.0451036,18.077231 C42.0569796,18.0931816 42.0687319,18.1091322 42.0817212,18.1242495 C42.085185,18.1281776 42.0891437,18.1318677 42.0927312,18.1360339 C42.1085659,18.154008 42.1248953,18.1717441 42.1422145,18.1885279 C42.1432041,18.1893611 42.1440701,18.1900753 42.1448123,18.1909086 C42.1711621,18.2159057 42.1994913,18.2392364 42.2293049,18.2614958 C42.2458818,18.2739944 42.2625824,18.286612 42.2800252,18.2980393 C42.2821283,18.2993486 42.2844787,18.300539 42.2867055,18.3018483 C42.3105811,18.3170847 42.3353227,18.3313688 42.3606829,18.3444625 C42.3611777,18.3447006 42.3614251,18.3449387 42.36192,18.3451767 L51.6402722,23.1063023 C51.7767222,23.1762943 51.92678,23.2112903 52.0768379,23.2112903 C52.2268958,23.2112903 52.3770774,23.1762943 52.5134037,23.1063023 L61.7915084,18.3451767 C61.7920033,18.3449387 61.7922507,18.3447006 61.7927455,18.3444625 C61.8181057,18.3313688 61.8427236,18.3170847 61.8667229,18.3018483 C61.8689497,18.3004199 61.8713001,18.2993486 61.8734032,18.2980393 C61.8909697,18.286612 61.9075466,18.2739944 61.9241235,18.2614958 C61.9538134,18.2393554 61.9822663,18.2159057 62.0086161,18.1909086 C62.009482,18.1900753 62.010348,18.1893611 62.011214,18.1885279 C62.0287805,18.1717441 62.04511,18.153889 62.061192,18.1357958 Z" id="Shape" fill="#40596B"></path>
                    <path d="M60.8603473,0 L57.2634343,0 C57.7601183,0 58.1625726,0.399597438 58.1625726,0.89275567 L58.1625726,16.3670683 L58.1625726,16.3677825 C58.1624527,16.3971839 58.1608942,16.4261092 58.1581369,16.4549154 C58.158017,16.4561058 58.158017,16.4572961 58.1578971,16.4584864 C58.1549,16.4870546 58.1504642,16.5156228 58.1448296,16.5437148 C58.1397945,16.5689501 58.1330809,16.5934711 58.1260077,16.6178731 C58.1250486,16.620968 58.1244492,16.6243009 58.12361,16.6273958 C58.1168964,16.6492981 58.1088641,16.6703671 58.100592,16.6914361 C58.0983142,16.6972688 58.0965159,16.7033396 58.0941182,16.7090532 C58.0866853,16.7264322 58.0781735,16.743335 58.0699014,16.7602378 C58.0653458,16.7695225 58.0612697,16.7790452 58.0564743,16.7880918 C58.049521,16.8008285 58.0417284,16.8127319 58.0342956,16.8251114 C58.0266229,16.8379671 58.01919,16.8511799 58.0107981,16.8635594 C58.0054032,16.8714157 57.9992891,16.8789148 57.9937744,16.8866521 C57.9821455,16.9026026 57.9707564,16.9185532 57.9581685,16.9337896 C57.9549316,16.9377177 57.9512152,16.9412887 57.9479783,16.9452168 C57.9323932,16.963191 57.9165684,16.9811651 57.8995447,16.998068 C57.8985856,16.9989012 57.8977464,16.9996154 57.8969072,17.0004486 C57.8713717,17.0254458 57.843918,17.0487765 57.8150257,17.0710359 C57.7989611,17.0835344 57.7827766,17.096152 57.7658728,17.1075793 C57.7638347,17.1088887 57.7615569,17.10996 57.759399,17.1113884 C57.7362612,17.1266248 57.7122841,17.1409089 57.6877077,17.1540026 C57.6872282,17.1542407 57.6869884,17.1544788 57.6865088,17.1547168 L49.1980434,21.9160804 L51.4457694,23.1063023 C51.5780027,23.1762943 51.7234233,23.2112903 51.868844,23.2112903 C52.0142646,23.2112903 52.1598051,23.1762943 52.2919185,23.1063023 L61.283302,18.3451767 C61.2837815,18.3449387 61.2840213,18.3447006 61.2845008,18.3444625 C61.3090773,18.3313688 61.3329344,18.3170847 61.3561921,18.3018483 C61.3583501,18.3004199 61.3606279,18.2993486 61.3626659,18.2980393 C61.3796896,18.286612 61.3957542,18.2739944 61.4118188,18.2614958 C61.4405913,18.2393554 61.4681648,18.2159057 61.4937004,18.1909086 C61.4945396,18.1900753 61.4953788,18.1893611 61.496218,18.1885279 C61.5133615,18.171506 61.5290665,18.1536509 61.5446515,18.1356768 C61.5478884,18.1317486 61.5516049,18.1281776 61.5548418,18.1242495 C61.5673098,18.1088941 61.5788188,18.0929435 61.5904477,18.077112 C61.5959624,18.0693748 61.6020765,18.0618756 61.6074713,18.0540194 C61.6158633,18.0415208 61.6232962,18.028427 61.6309688,18.0155714 C61.6382818,18.0031918 61.6461942,17.9912884 61.6531476,17.9785518 C61.657943,17.9695052 61.6620191,17.9599824 61.6665747,17.9506978 C61.6748468,17.9337949 61.6834785,17.9170111 61.6907915,17.8995131 C61.6931892,17.8936804 61.6949875,17.8876097 61.6972653,17.8818961 C61.7055374,17.860827 61.7136896,17.839639 61.7202832,17.8178557 C61.7212423,17.8147608 61.7218417,17.8114279 61.7226809,17.808333 C61.729874,17.783931 61.7364677,17.75941 61.7415029,17.7341748 C61.7472574,17.7060827 61.7515732,17.6775145 61.7545704,17.6489464 C61.7546903,17.647756 61.7546903,17.6464466 61.7548101,17.6453753 C61.7575675,17.6165691 61.759126,17.5876438 61.7592459,17.5585995 L61.7592459,17.5575282 L61.7592459,0.89275567 C61.7594857,0.399597438 61.3570313,0 60.8603473,0 Z" id="Shape" fill="#40596B"></path>
                    <path d="M31.5313489,18.5690323 L0.918424469,18.5690323 C0.411209249,18.5690323 0,18.978761 0,19.4844226 L0,60.9813839 C0,61.4870455 0.411209249,61.8967742 0.918424469,61.8967742 L31.5313489,61.8967742 C32.0386865,61.8967742 32.4497733,61.4870455 32.4497733,60.9813839 L32.4497733,19.4844226 C32.4497733,18.978883 32.0386865,18.5690323 31.5313489,18.5690323 Z" id="Shape" fill="#FA7904"></path>
                    <path d="M17.0623002,19.0848387 L17.0623002,15.7750806 C17.0623002,12.6228671 19.7389668,10.0582258 23.0288714,10.0582258 C26.318776,10.0582258 28.9954426,12.6228671 28.9954426,15.7750806 L28.9954426,19.0848387 L30.879623,19.0848387 L30.879623,15.7750806 C30.879623,11.6272918 27.3578386,8.25290323 23.0288714,8.25290323 C18.6999041,8.25290323 15.1781198,11.6272918 15.1781198,15.7750806 L15.1781198,19.0848387 L17.0623002,19.0848387 Z" id="Shape" fill="#CCD1D9"></path>
                    <path d="M32.0311419,18.5690323 L28.2627058,18.5690323 C28.7830748,18.5690323 29.2047206,18.978761 29.2047206,19.4844226 L29.2047206,60.9813839 C29.2047206,61.4870455 28.7830748,61.8967742 28.2627058,61.8967742 L32.0311419,61.8967742 C32.5515109,61.8967742 32.9731568,61.4870455 32.9731568,60.9813839 L32.9731568,19.4844226 C32.9731568,18.978883 32.5515109,18.5690323 32.0311419,18.5690323 Z" id="Shape" fill="#DF710E"></path>
                    <path d="M37.3196538,18.5690323 L31.4030064,18.5690323 C31.8931716,18.5690323 32.2903438,18.978761 32.2903438,19.4844226 L32.2903438,60.9813839 C32.2903438,61.4870455 31.8931716,61.8967742 31.4030064,61.8967742 L37.3196538,61.8967742 C37.8097006,61.8967742 38.2069912,61.4870455 38.2069912,60.9813839 L38.2069912,19.4844226 C38.2069912,18.978883 37.809819,18.5690323 37.3196538,18.5690323 Z" id="Shape" fill="#DF710E"></path>
                    <path d="M56.5254116,28.749385 C56.5254116,28.2545249 56.1085052,27.8535484 55.5939854,27.8535484 L39.1384173,27.8535484 L39.1384173,60.9997431 C39.1384173,61.4946033 38.7213868,61.8955797 38.2069912,61.8955797 L55.5939854,61.8967742 C56.1085052,61.8967742 56.5254116,61.4957977 56.5254116,61.0009375 C56.5254116,60.9925764 56.5242939,60.9843347 56.5240455,60.9759736 C56.5242939,60.9676124 56.5254116,60.9593707 56.5254116,60.9510096 L56.5254116,28.749385 Z" id="Shape" fill="#25D9F8"></path>
                    <path d="M62.2826294,28.749385 C62.2826294,28.2545249 61.8853951,27.8535484 61.3951532,27.8535484 L55.4786447,27.8535484 C55.9688866,27.8535484 56.366121,28.2545249 56.366121,28.749385 L56.366121,60.9510096 C56.366121,60.9593707 56.365056,60.9676124 56.3648194,60.9759736 C56.365056,60.9843347 56.366121,60.9925764 56.366121,61.0009375 C56.366121,61.492931 55.9732648,61.891877 55.4868095,61.8964159 L61.3951532,61.8967742 C61.8853951,61.8967742 62.2826294,61.4957977 62.2826294,61.0009375 C62.2826294,60.9925764 62.2815645,60.9843347 62.2813278,60.9759736 C62.2815645,60.9676124 62.2826294,60.9593707 62.2826294,60.9510096 L62.2826294,28.749385 Z" id="Shape" fill="#00C0F1"></path>
                    <path d="M56.5254116,28.749385 C56.5254116,28.2545249 56.1037658,27.8535484 55.5833968,27.8535484 L51.8149606,27.8535484 C52.335204,27.8535484 52.7569755,28.2545249 52.7569755,28.749385 L52.7569755,60.9510096 C52.7569755,60.9593707 52.755845,60.9676124 52.7555938,60.9759736 C52.755845,60.9843347 52.7569755,60.9925764 52.7569755,61.0009375 C52.7569755,61.4941255 52.3380929,61.8939075 51.8202359,61.8965353 L55.5833968,61.8967742 C56.1037658,61.8967742 56.5254116,61.4957977 56.5254116,61.0009375 C56.5254116,60.9925764 56.5242812,60.9843347 56.52403,60.9759736 C56.5242812,60.9676124 56.5254116,60.9593707 56.5254116,60.9510096 L56.5254116,28.749385 Z" id="Shape" fill="#00C0F1"></path>
                    <g id="Group" transform="translate(45.534359, 3.610645)" fill="#FFFFFF">
                        <path d="M2.83972548,5.47460423 C1.30833516,5.47460423 0.0623369428,4.24664425 0.0623369428,2.73742377 C0.0623369428,1.22820329 1.30833516,0.00024330493 2.83972548,0.00024330493 C4.37111581,0.00024330493 5.61711403,1.22820329 5.61711403,2.73742377 C5.61711403,4.24664425 4.37111581,5.47460423 2.83972548,5.47460423 Z M2.83972548,1.82503028 C2.32917975,1.82503028 1.9139293,2.23426917 1.9139293,2.73742377 C1.9139293,3.24057836 2.32917975,3.64981726 2.83972548,3.64981726 C3.35027122,3.64981726 3.76552166,3.24057836 3.76552166,2.73742377 C3.76552166,2.23426917 3.35027122,1.82503028 2.83972548,1.82503028 Z" id="Shape"></path>
                        <path d="M10.2460949,12.7737521 C8.71470461,12.7737521 7.46870639,11.5457921 7.46870639,10.0365717 C7.46870639,8.52735119 8.71470461,7.29939121 10.2460949,7.29939121 C11.7774853,7.29939121 13.0234835,8.52735119 13.0234835,10.0365717 C13.0234835,11.5457921 11.7774853,12.7737521 10.2460949,12.7737521 Z M10.2460949,9.12417818 C9.73554919,9.12417818 9.32029875,9.53341707 9.32029875,10.0365717 C9.32029875,10.5397263 9.73554919,10.9489652 10.2460949,10.9489652 C10.7566407,10.9489652 11.1718911,10.5397263 11.1718911,10.0365717 C11.1718911,9.53341707 10.7566407,9.12417818 10.2460949,9.12417818 Z" id="Shape"></path>
                        <path d="M0.988133123,12.7739954 C0.751252741,12.7739954 0.514248918,12.6849458 0.333410064,12.5068466 C-0.0281442039,12.1504049 -0.0281442039,11.572799 0.333410064,11.2164789 L11.4432111,0.267513771 C11.8048888,-0.088684647 12.3909795,-0.088684647 12.7526572,0.267513771 C13.1142115,0.623955493 13.1142115,1.2015614 12.7526572,1.55788147 L1.64285618,12.5068466 C1.46201733,12.6848242 1.22501351,12.7739954 0.988133123,12.7739954 Z" id="Shape"></path>
                    </g>
                    <g id="Group" transform="translate(8.897518, 7.737097)" fill="#E6E9ED">
                        <path d="M7.70692902,0.120408569 C3.50227334,0.120408569 0.0816212939,3.50986142 0.0816212939,7.67616714 L0.0816212939,19.1606784 C0.0816212939,19.6615345 0.491191823,20.0673694 0.996658222,20.0673694 C1.50212462,20.0673694 1.91169515,19.6615345 1.91169515,19.1606784 L1.91169515,7.67616714 C1.91169515,4.50988117 4.51149807,1.93379062 7.70692902,1.93379062 C10.90236,1.93379062 13.5021629,4.50988117 13.5021629,7.67616714 L13.5021629,19.1606784 C13.5021629,19.6615345 13.9117334,20.0673694 14.4171998,20.0673694 C14.9226662,20.0673694 15.3322368,19.6615345 15.3322368,19.1606784 L15.3322368,7.67616714 C15.3322368,3.50986142 11.9115847,0.120408569 7.70692902,0.120408569 Z" id="Shape"></path>
                        <path d="M35.137784,23.0891893 C34.6323176,23.0891893 34.2227471,23.4950242 34.2227471,23.9958803 C34.2227471,26.5197454 32.3762026,28.6229059 29.9519648,29.0524357 L29.9519648,30.8863694 C33.3894535,30.440761 36.052821,27.5216995 36.052821,23.9958803 C36.052821,23.4951451 35.6432504,23.0891893 35.137784,23.0891893 Z" id="Shape"></path>
                    </g>
                </g>
            </g>
        </g>
    </g>
</svg>