<?xml version="1.0" encoding="UTF-8"?>
<svg width="216px" height="63px" viewBox="0 0 216 63" version="1.1" xmlns="http://www.w3.org/2000/svg" xmlns:xlink="http://www.w3.org/1999/xlink">
    <!-- Generator: Sketch 52 (66869) - http://www.bohemiancoding.com/sketch -->
    <title>Group 16</title>
    <desc>Created with Sketch.</desc>
    <defs>
        <radialGradient cx="50%" cy="50%" fx="50%" fy="50%" r="50%" gradientTransform="translate(0.500000,0.500000),scale(1.000000,0.988235),translate(-0.500000,-0.500000)" id="radialGradient-1">
            <stop stop-color="#FFCD05" offset="0%"></stop>
            <stop stop-color="#FFCD05" offset="50%"></stop>
            <stop stop-color="#FFCD05" stop-opacity="0.5" offset="65%"></stop>
            <stop stop-color="#FFCD05" stop-opacity="0.2" offset="80%"></stop>
            <stop stop-color="#FFCD05" stop-opacity="0.075" offset="90%"></stop>
            <stop stop-color="#FFCD05" stop-opacity="0" offset="100%"></stop>
        </radialGradient>
    </defs>
    <g id="Page-1" stroke="none" stroke-width="1" fill="none" fill-rule="evenodd">
        <g id="IT-club" transform="translate(-456.000000, -3204.000000)" fill-rule="nonzero">
            <g id="Group-16" transform="translate(456.000000, 3204.000000)">
                <g id="Suncorp-desktop-header">
                    <g id="one-suncorp-logo">
                        <path d="M0.648693048,25.5859932 C0.648693048,29.2953207 2.75694545,30.9687016 7.16265241,31.9727301 L10.541262,32.7257515 C14.514507,33.6461109 15.2983444,34.5943601 15.2983444,36.5745274 C15.2983444,38.97304 13.2711786,40.4790827 9.59525134,40.4790827 C5.7571508,40.4790827 3.78404278,38.7778122 3.56781176,35.2916021 L0,35.2916021 C0,40.6743105 3.70295615,43.7142857 9.51416471,43.7142857 C15.8659508,43.7142857 18.9472428,40.3954137 18.9472428,36.1004029 C18.9472428,32.2516269 16.7308749,30.3830183 12.9468321,29.5463279 L9.4060492,28.7096374 C5.35171765,27.789278 4.18947594,27.259374 4.18947594,25.1118686 C4.18947594,23.0480322 5.70309305,21.4025411 9.10873155,21.4025411 C13.1630631,21.4025411 14.3793626,23.2990394 14.6766802,25.86489 L18.2174631,25.86489 C18.1904342,20.62163 14.2442182,18.083669 9.27090481,18.083669 C3.43266738,18.0557794 0.648693048,21.5140998 0.648693048,25.5859932 Z M20.5419465,18.697242 L20.5419465,33.199876 C20.5419465,40.6185311 23.947585,43.6306167 29.893938,43.6306167 C35.9213775,43.6306167 39.2459294,40.5627518 39.2459294,33.199876 L39.2459294,18.697242 L35.3808,18.697242 L35.3808,33.6740006 C35.3808,38.443136 33.407692,40.283855 29.7047358,40.283855 C26.380184,40.283855 24.3800471,38.3315773 24.3800471,33.6740006 L24.3800471,18.697242 L20.5419465,18.697242 Z M41.8136727,18.697242 L41.8136727,42.989154 L45.3544556,42.989154 L45.3544556,24.1078401 L56.6254973,42.989154 L60.6528,42.989154 L60.6528,18.697242 L57.0849882,18.697242 L57.0849882,37.4669972 L46.0301775,18.697242 L41.8136727,18.697242 Z M83.4111144,26.2553455 C83.0056813,21.3746514 79.1946096,18.1394484 73.626661,18.1394484 C66.7613262,18.1394484 62.6529369,23.2711497 62.6529369,30.7455841 C62.6529369,39.4471645 67.2748749,43.6306167 73.3293433,43.6306167 C79.4648984,43.6306167 83.0327102,39.3634955 83.5192299,34.2875736 L79.8162738,34.2875736 C79.0594652,38.1363496 77.0052706,40.2280756 73.5455743,40.2280756 C69.653416,40.2280756 66.4910374,37.5506663 66.4910374,31.1360397 C66.4910374,24.4704059 69.4101561,21.4583204 73.5455743,21.4583204 C77.140415,21.4583204 78.9783786,23.24326 79.6811294,26.2274558 L83.4111144,26.2553455 Z M85.0328471,30.9129222 C85.0328471,39.1961574 89.654785,43.7142857 96.3849754,43.7142857 C103.520599,43.7142857 107.872248,38.4710257 107.872248,30.5503564 C107.872248,21.7929966 102.898935,18 96.4390332,18 C89.9250738,18 85.0328471,22.5181283 85.0328471,30.9129222 Z M88.8709476,31.0523706 C88.8709476,24.8050821 92.0062973,21.4025411 96.5471487,21.4025411 C100.709596,21.4025411 104.061176,24.4704059 104.061176,30.578246 C104.061176,37.048652 101.006913,40.283855 96.6552642,40.283855 C91.8711529,40.283855 88.8709476,37.1881004 88.8709476,31.0523706 Z M113.575341,21.9882244 L120.656907,21.9882244 C123.440881,21.9882244 124.873412,23.1317013 124.873412,25.8091106 C124.873412,28.570189 123.440881,29.6857763 120.305532,29.6857763 L113.548312,29.6857763 L113.575341,21.9882244 Z M109.818327,18.697242 L109.818327,42.989154 L113.548312,42.989154 L113.548312,32.8651999 L120.062272,32.8651999 C123.170593,32.8651999 124.251748,33.8413387 124.359863,36.5745274 L124.522036,39.9770685 C124.576094,41.4273319 124.68421,42.2640223 124.954498,42.9612643 L128.981801,42.9612643 C128.468252,41.9851255 128.252021,40.9253176 128.197964,38.8057019 L128.143906,36.1004029 C128.089848,33.2835451 127.387097,32.0842888 125.224787,31.1360397 C127.387097,30.1320112 128.657455,28.1518438 128.657455,25.3628757 C128.657455,21.3467617 126.251884,18.697242 120.927196,18.697242 C120.927196,18.697242 109.818327,18.697242 109.818327,18.697242 Z M130.900851,18.697242 L130.900851,42.989154 L134.684894,42.989154 L134.684894,33.199876 L141.27994,33.199876 C146.145138,33.199876 148.658824,30.3830183 148.658824,25.8927797 C148.658824,21.1794236 145.84782,18.697242 141.415084,18.697242 L130.900851,18.697242 Z M134.684894,21.9882244 L140.442045,21.9882244 C143.523337,21.9882244 144.874781,23.2990394 144.874781,25.948559 C144.874781,28.6538581 143.44225,29.9646731 140.442045,29.9646731 L134.684894,29.9646731 L134.684894,21.9882244 Z" id="Shape" fill="#004346"></path>
                        <path d="M184.870588,0 C167.681739,0 153.741176,14.1065217 153.741176,31.5 C153.741176,48.8934783 167.681739,63 184.870588,63 C202.059437,63 216,48.8934783 216,31.5 C216,14.1065217 202.059437,0 184.870588,0 Z M184.111334,46.097561 C175.713325,46.097561 168.926255,39.2296925 168.926255,30.7317073 C168.926255,22.2337222 175.713325,15.3658537 184.111334,15.3658537 C192.509343,15.3658537 199.296413,22.2337222 199.296413,30.7317073 C199.296413,39.2296925 192.482934,46.097561 184.111334,46.097561 Z" id="Shape" fill="url(#radialGradient-1)"></path>
                    </g>
                </g>
            </g>
        </g>
    </g>
</svg>